%TF.GenerationSoftware,Altium Limited,Altium Designer,25.8.1 (18)*%
G04 Layer_Color=16711935*
%FSLAX45Y45*%
%MOMM*%
%TF.SameCoordinates,CC702F55-F569-4865-8DD5-917D1CD5107B*%
%TF.FilePolarity,Negative*%
%TF.FileFunction,Soldermask,Bot*%
%TF.Part,Single*%
G01*
G75*
%TA.AperFunction,ComponentPad*%
%ADD32C,1.70320*%
%ADD33R,1.70320X1.70320*%
%ADD34C,1.75320*%
%ADD35R,1.75320X1.75320*%
%TA.AperFunction,ViaPad*%
%ADD36C,1.20320*%
%ADD37C,0.90320*%
D32*
X4188000Y3846000D02*
D03*
Y4100000D02*
D03*
Y4354000D02*
D03*
X1669000Y4708000D02*
D03*
Y4454000D02*
D03*
Y4200000D02*
D03*
Y3946000D02*
D03*
Y3692000D02*
D03*
Y3438000D02*
D03*
X2431000Y4962000D02*
D03*
Y4708000D02*
D03*
Y4454000D02*
D03*
Y4200000D02*
D03*
Y3946000D02*
D03*
Y3692000D02*
D03*
Y3438000D02*
D03*
X419000Y2408000D02*
D03*
Y2154000D02*
D03*
Y1900000D02*
D03*
Y1646000D02*
D03*
Y1392000D02*
D03*
Y1138000D02*
D03*
X1181000Y2662000D02*
D03*
Y2408000D02*
D03*
Y2154000D02*
D03*
Y1900000D02*
D03*
Y1646000D02*
D03*
Y1392000D02*
D03*
Y1138000D02*
D03*
X1669000Y2485000D02*
D03*
Y2231000D02*
D03*
Y1977000D02*
D03*
Y1723000D02*
D03*
Y1469000D02*
D03*
Y1215000D02*
D03*
Y961000D02*
D03*
X2431000Y2739000D02*
D03*
Y2485000D02*
D03*
Y2231000D02*
D03*
Y1977000D02*
D03*
Y1723000D02*
D03*
Y1469000D02*
D03*
Y1215000D02*
D03*
Y961000D02*
D03*
X4950000Y3084000D02*
D03*
Y3338000D02*
D03*
Y3592000D02*
D03*
Y3846000D02*
D03*
Y4100000D02*
D03*
Y4354000D02*
D03*
Y4608000D02*
D03*
Y4862000D02*
D03*
X4188000Y3084000D02*
D03*
Y3338000D02*
D03*
Y3592000D02*
D03*
Y4608000D02*
D03*
D33*
X1669000Y4962000D02*
D03*
X419000Y2662000D02*
D03*
X1669000Y2739000D02*
D03*
X4188000Y4862000D02*
D03*
D34*
X850000Y4716000D02*
D03*
Y4462000D02*
D03*
Y4208000D02*
D03*
Y3954000D02*
D03*
Y3700000D02*
D03*
D35*
Y3446000D02*
D03*
D36*
X3200000Y3325000D02*
D03*
X3575000Y5100000D02*
D03*
X4575000Y700000D02*
D03*
X4750000Y1025000D02*
D03*
X4125000Y750000D02*
D03*
X4150000Y1050000D02*
D03*
X4225000Y1425000D02*
D03*
X4425000Y2095000D02*
D03*
X4275000Y2275000D02*
D03*
X2900000Y1075000D02*
D03*
X3675000Y4850000D02*
D03*
X5975000Y2400000D02*
D03*
X3700000Y4025000D02*
D03*
X2875000Y1400000D02*
D03*
D37*
X2800000Y4625000D02*
D03*
X2725000Y3800000D02*
D03*
X2775000Y3000000D02*
D03*
X2925000Y1750000D02*
D03*
X3950000Y3000000D02*
D03*
X3550000Y645000D02*
D03*
X1650000Y3275000D02*
D03*
X650000Y4675000D02*
D03*
X1450000Y1300000D02*
D03*
X1425000Y1125000D02*
D03*
X225000Y1200000D02*
D03*
%TF.MD5,e6f73572ae5a45bcbd2ab6f872268138*%
M02*
