%TF.GenerationSoftware,Altium Limited,Altium Designer,25.8.1 (18)*%
G04 Layer_Color=8388736*
%FSLAX45Y45*%
%MOMM*%
%TF.SameCoordinates,CC702F55-F569-4865-8DD5-917D1CD5107B*%
%TF.FilePolarity,Negative*%
%TF.FileFunction,Soldermask,Top*%
%TF.Part,Single*%
G01*
G75*
%TA.AperFunction,SMDPad,CuDef*%
%ADD11R,1.60000X1.50000*%
%ADD12R,0.35000X0.40000*%
%ADD13R,0.65872X0.81213*%
%ADD30R,1.20320X2.50320*%
G04:AMPARAMS|DCode=31|XSize=0.6532mm|YSize=1.8032mm|CornerRadius=0.1511mm|HoleSize=0mm|Usage=FLASHONLY|Rotation=180.000|XOffset=0mm|YOffset=0mm|HoleType=Round|Shape=RoundedRectangle|*
%AMROUNDEDRECTD31*
21,1,0.65320,1.50100,0,0,180.0*
21,1,0.35100,1.80320,0,0,180.0*
1,1,0.30220,-0.17550,0.75050*
1,1,0.30220,0.17550,0.75050*
1,1,0.30220,0.17550,-0.75050*
1,1,0.30220,-0.17550,-0.75050*
%
%ADD31ROUNDEDRECTD31*%
%TA.AperFunction,ComponentPad*%
%ADD32C,1.70320*%
%ADD33R,1.70320X1.70320*%
%ADD34C,1.75320*%
%ADD35R,1.75320X1.75320*%
%TA.AperFunction,ViaPad*%
%ADD36C,1.20320*%
%ADD37C,0.90320*%
D11*
X3500000Y1820000D02*
D03*
Y2180000D02*
D03*
X3450000Y2770000D02*
D03*
Y3130000D02*
D03*
X3400000Y3650000D02*
D03*
Y4010000D02*
D03*
Y4490000D02*
D03*
Y4850000D02*
D03*
D12*
X2947500Y1950000D02*
D03*
X3012500D02*
D03*
X2867500Y2950000D02*
D03*
X2932500D02*
D03*
X2850000Y3800000D02*
D03*
X2915000D02*
D03*
X2935000Y4800000D02*
D03*
X3000000D02*
D03*
X4382500Y1550000D02*
D03*
X4317500D02*
D03*
X4350000Y2000000D02*
D03*
X4285000Y2000000D02*
D03*
X4350000Y2450000D02*
D03*
X4285000D02*
D03*
X4365000Y1150000D02*
D03*
X4300000D02*
D03*
X4765000Y800000D02*
D03*
X4700000D02*
D03*
X4765000Y1200000D02*
D03*
X4700000D02*
D03*
X4365000Y750000D02*
D03*
X4300000D02*
D03*
D13*
X3732329Y5100000D02*
D03*
X3867671D02*
D03*
D30*
X5400000Y2055000D02*
D03*
X5550000D02*
D03*
X5700000D02*
D03*
X5850000D02*
D03*
X6000000D02*
D03*
X6000000Y3145000D02*
D03*
X5850000D02*
D03*
X5700000D02*
D03*
X5550000D02*
D03*
X5400000D02*
D03*
D31*
X3445000Y1255000D02*
D03*
X3380000D02*
D03*
X3315000D02*
D03*
X3250000D02*
D03*
X3185000D02*
D03*
X3120000D02*
D03*
X3055000D02*
D03*
X3445000Y645000D02*
D03*
X3380000D02*
D03*
X3315000D02*
D03*
X3250000D02*
D03*
X3185000D02*
D03*
X3120000D02*
D03*
X3055000D02*
D03*
D32*
X4188000Y3846000D02*
D03*
Y4100000D02*
D03*
Y4354000D02*
D03*
X1669000Y4708000D02*
D03*
Y4454000D02*
D03*
Y4200000D02*
D03*
Y3946000D02*
D03*
Y3692000D02*
D03*
Y3438000D02*
D03*
X2431000Y4962000D02*
D03*
Y4708000D02*
D03*
Y4454000D02*
D03*
Y4200000D02*
D03*
Y3946000D02*
D03*
Y3692000D02*
D03*
Y3438000D02*
D03*
X419000Y2408000D02*
D03*
Y2154000D02*
D03*
Y1900000D02*
D03*
Y1646000D02*
D03*
Y1392000D02*
D03*
Y1138000D02*
D03*
X1181000Y2662000D02*
D03*
Y2408000D02*
D03*
Y2154000D02*
D03*
Y1900000D02*
D03*
Y1646000D02*
D03*
Y1392000D02*
D03*
Y1138000D02*
D03*
X1669000Y2485000D02*
D03*
Y2231000D02*
D03*
Y1977000D02*
D03*
Y1723000D02*
D03*
Y1469000D02*
D03*
Y1215000D02*
D03*
Y961000D02*
D03*
X2431000Y2739000D02*
D03*
Y2485000D02*
D03*
Y2231000D02*
D03*
Y1977000D02*
D03*
Y1723000D02*
D03*
Y1469000D02*
D03*
Y1215000D02*
D03*
Y961000D02*
D03*
X4950000Y3084000D02*
D03*
Y3338000D02*
D03*
Y3592000D02*
D03*
Y3846000D02*
D03*
Y4100000D02*
D03*
Y4354000D02*
D03*
Y4608000D02*
D03*
Y4862000D02*
D03*
X4188000Y3084000D02*
D03*
Y3338000D02*
D03*
Y3592000D02*
D03*
Y4608000D02*
D03*
D33*
X1669000Y4962000D02*
D03*
X419000Y2662000D02*
D03*
X1669000Y2739000D02*
D03*
X4188000Y4862000D02*
D03*
D34*
X850000Y4716000D02*
D03*
Y4462000D02*
D03*
Y4208000D02*
D03*
Y3954000D02*
D03*
Y3700000D02*
D03*
D35*
Y3446000D02*
D03*
D36*
X3200000Y3325000D02*
D03*
X3575000Y5100000D02*
D03*
X4575000Y700000D02*
D03*
X4750000Y1025000D02*
D03*
X4125000Y750000D02*
D03*
X4150000Y1050000D02*
D03*
X4225000Y1425000D02*
D03*
X4425000Y2095000D02*
D03*
X4275000Y2275000D02*
D03*
X2900000Y1075000D02*
D03*
X3675000Y4850000D02*
D03*
X5975000Y2400000D02*
D03*
X3700000Y4025000D02*
D03*
X2875000Y1400000D02*
D03*
D37*
X2800000Y4625000D02*
D03*
X2725000Y3800000D02*
D03*
X2775000Y3000000D02*
D03*
X2925000Y1750000D02*
D03*
X3950000Y3000000D02*
D03*
X3550000Y645000D02*
D03*
X1650000Y3275000D02*
D03*
X650000Y4675000D02*
D03*
X1450000Y1300000D02*
D03*
X1425000Y1125000D02*
D03*
X225000Y1200000D02*
D03*
%TF.MD5,e3a4e0aa992f89543ae03b60bfec8ebc*%
M02*
