%TF.GenerationSoftware,Altium Limited,Altium Designer,25.8.1 (18)*%
G04 Layer_Physical_Order=3*
G04 Layer_Color=16440176*
%FSLAX45Y45*%
%MOMM*%
%TF.SameCoordinates,CC702F55-F569-4865-8DD5-917D1CD5107B*%
%TF.FilePolarity,Positive*%
%TF.FileFunction,Copper,L3,Inr,Signal*%
%TF.Part,Single*%
G01*
G75*
%TA.AperFunction,Conductor*%
%ADD10C,0.30000*%
%TA.AperFunction,ComponentPad*%
%ADD17C,1.50000*%
%ADD18R,1.50000X1.50000*%
%ADD19C,1.55000*%
%ADD20R,1.55000X1.55000*%
%TA.AperFunction,ViaPad*%
%ADD21C,1.00000*%
%ADD22C,0.70000*%
D10*
X2431000Y2739000D02*
G03*
X2500000Y2808000I0J69000D01*
G01*
X1162000Y4462000D02*
G03*
X1200000Y4500000I0J38000D01*
G01*
X2662000Y4962000D02*
G03*
X2700000Y5000000I0J38000D01*
G01*
X5300000Y4800000D02*
G03*
X5200000Y4900000I-100000J0D01*
G01*
X5000000Y5200000D02*
G03*
X4900000Y5300000I-100000J0D01*
G01*
X4998619Y4900331D02*
G03*
X5000000Y4912000I-48619J11669D01*
G01*
X4950000Y4862000D02*
G03*
X4998619Y4900331I0J50000D01*
G01*
X419000Y2662000D02*
G03*
X481000Y2600000I62000J0D01*
G01*
X3275000D02*
Y3250000D01*
X3200000Y3325000D02*
X3275000Y3250000D01*
X3634241Y5172771D02*
Y5220711D01*
X3663530Y5250000D01*
X3714645D01*
X3575000Y5113530D02*
X3634241Y5172771D01*
X3575000Y5100000D02*
Y5113530D01*
X3714645Y5250000D02*
X3750000Y5285356D01*
Y5300000D01*
X2700000D02*
X3750000D01*
X2431000Y2739000D02*
X2575743D01*
X850000Y4462000D02*
X1162000D01*
X2431000Y4962000D02*
X2662000D01*
X2700000Y5000000D02*
Y5300000D01*
X5300000Y3600000D02*
Y4800000D01*
X5000000Y4900000D02*
X5200000D01*
X5000000Y4912000D02*
Y5200000D01*
X3750000Y5300000D02*
X4900000D01*
X5025000Y2425000D02*
Y2900000D01*
X4950000Y2975000D02*
Y3084000D01*
Y2975000D02*
X5025000Y2900000D01*
X4960000Y2360000D02*
X5025000Y2425000D01*
X3835000Y2360000D02*
X4960000D01*
X3750000Y2275000D02*
X3835000Y2360000D01*
X3750000Y775000D02*
Y2275000D01*
Y775000D02*
X3775000Y750000D01*
X4125000D01*
X4425000Y2225000D02*
X4925000D01*
X4232574Y2190000D02*
X4390000D01*
X4425000Y2225000D01*
X4200000Y2157426D02*
X4232574Y2190000D01*
X4950000Y3338000D02*
X4950574Y3337426D01*
X5070000D01*
X5100000Y3307426D01*
Y2400000D02*
Y3307426D01*
X4925000Y2225000D02*
X5100000Y2400000D01*
X4200000Y2050000D02*
Y2157426D01*
X4000000Y1850000D02*
X4200000Y2050000D01*
X3925000Y1850000D02*
X4000000D01*
X3900000Y1825000D02*
X3925000Y1850000D01*
X3900000Y1242574D02*
Y1825000D01*
Y1242574D02*
X3917574Y1225000D01*
X4507426D01*
X4525000Y1207426D01*
Y992574D02*
Y1207426D01*
X4507426Y975000D02*
X4525000Y992574D01*
X4167574Y975000D02*
X4507426D01*
X4150000Y992574D02*
X4167574Y975000D01*
X4150000Y992574D02*
Y1050000D01*
X4950000Y3592000D02*
X5157426D01*
X5175000Y3574426D01*
Y2350000D02*
Y3574426D01*
X5000000Y2175000D02*
X5175000Y2350000D01*
X5000000Y1892574D02*
Y2175000D01*
X4982426Y1875000D02*
X5000000Y1892574D01*
X4242574Y1875000D02*
X4982426D01*
X4225000Y1857426D02*
X4242574Y1875000D01*
X4225000Y1425000D02*
Y1857426D01*
X1550000Y1773706D02*
Y1874134D01*
X1549000Y878289D02*
Y1772706D01*
X1500000Y1924134D02*
X1550000Y1874134D01*
X1549000Y1772706D02*
X1550000Y1773706D01*
X1295711Y625000D02*
X1549000Y878289D01*
X1500000Y1924134D02*
Y2709711D01*
X2900000Y1075000D02*
Y1275000D01*
X3150000Y1525000D01*
Y2475000D01*
X3275000Y2600000D01*
X6075000Y2500000D02*
X6195710D01*
X5975000Y2400000D02*
X6075000Y2500000D01*
X6225000Y2529290D02*
Y3570711D01*
X6195710Y2500000D02*
X6225000Y2529290D01*
X5300000Y3600000D02*
X6195710D01*
X6210355Y3585356D01*
X6210356Y3585355D02*
X6225000Y3570711D01*
X3700000Y4025000D02*
X3995711D01*
X4054290Y4608000D02*
X4188000D01*
X4025000Y4578711D02*
X4054290Y4608000D01*
X3995711Y4025000D02*
X4025000Y4054290D01*
Y4578711D01*
X2575743Y2739000D02*
X2660041Y2654702D01*
X2674679Y2640064D01*
X2709445Y1400000D02*
X2875000D01*
X2675056Y1474678D02*
X2683640Y1425805D01*
X2674679Y2640064D02*
X2675056Y1474678D01*
X2683640Y1425805D02*
X2709445Y1400000D01*
X1200000Y2681000D02*
X1519000Y3000000D01*
X1181000Y2662000D02*
X1200000Y2681000D01*
X900000Y654290D02*
X929289Y625000D01*
X1295711D01*
X900000Y654290D02*
Y2600000D01*
X1529290Y2739000D02*
X1669000D01*
X1500000Y2709711D02*
X1529290Y2739000D01*
X300000Y3099999D02*
X399999Y3000000D01*
X300000Y3099999D02*
Y3100000D01*
X399999Y3000000D02*
X1170710D01*
X1200000Y2681000D02*
Y2970711D01*
X1170710Y3000000D02*
X1200000Y2970711D01*
X200000Y3200000D02*
X300000Y3100000D01*
X200000Y3200000D02*
Y4400000D01*
X262000Y4462000D01*
X850000D01*
X858000Y4200000D02*
X1470711D01*
X2470711Y3000000D02*
X2500000Y2970711D01*
X1500000Y3129289D02*
Y4170710D01*
X2670710Y3100000D02*
X2700000Y3129289D01*
Y3300000D02*
X2900000Y3500000D01*
X4026000D01*
X1529290Y3100000D02*
X2670710D01*
X1200000Y4500000D02*
Y5300000D01*
X850000Y4208000D02*
X858000Y4200000D01*
X2700000Y3129289D02*
Y3300000D01*
X4026000Y3500000D02*
X4188000Y3338000D01*
X1200000Y5300000D02*
X2700000D01*
X1519000Y3000000D02*
X2470711D01*
X1500000Y3129289D02*
X1529290Y3100000D01*
X2500000Y2808000D02*
Y2970711D01*
X1470711Y4200000D02*
X1500000Y4170710D01*
X1669000Y2231000D02*
X2431000D01*
X481000Y2600000D02*
X900000D01*
D17*
X4188000Y3846000D02*
D03*
Y4100000D02*
D03*
Y4354000D02*
D03*
X1669000Y4708000D02*
D03*
Y4454000D02*
D03*
Y4200000D02*
D03*
Y3946000D02*
D03*
Y3692000D02*
D03*
Y3438000D02*
D03*
X2431000Y4962000D02*
D03*
Y4708000D02*
D03*
Y4454000D02*
D03*
Y4200000D02*
D03*
Y3946000D02*
D03*
Y3692000D02*
D03*
Y3438000D02*
D03*
X419000Y2408000D02*
D03*
Y2154000D02*
D03*
Y1900000D02*
D03*
Y1646000D02*
D03*
Y1392000D02*
D03*
Y1138000D02*
D03*
X1181000Y2662000D02*
D03*
Y2408000D02*
D03*
Y2154000D02*
D03*
Y1900000D02*
D03*
Y1646000D02*
D03*
Y1392000D02*
D03*
Y1138000D02*
D03*
X1669000Y2485000D02*
D03*
Y2231000D02*
D03*
Y1977000D02*
D03*
Y1723000D02*
D03*
Y1469000D02*
D03*
Y1215000D02*
D03*
Y961000D02*
D03*
X2431000Y2739000D02*
D03*
Y2485000D02*
D03*
Y2231000D02*
D03*
Y1977000D02*
D03*
Y1723000D02*
D03*
Y1469000D02*
D03*
Y1215000D02*
D03*
Y961000D02*
D03*
X4950000Y3084000D02*
D03*
Y3338000D02*
D03*
Y3592000D02*
D03*
Y3846000D02*
D03*
Y4100000D02*
D03*
Y4354000D02*
D03*
Y4608000D02*
D03*
Y4862000D02*
D03*
X4188000Y3084000D02*
D03*
Y3338000D02*
D03*
Y3592000D02*
D03*
Y4608000D02*
D03*
D18*
X1669000Y4962000D02*
D03*
X419000Y2662000D02*
D03*
X1669000Y2739000D02*
D03*
X4188000Y4862000D02*
D03*
D19*
X850000Y4716000D02*
D03*
Y4462000D02*
D03*
Y4208000D02*
D03*
Y3954000D02*
D03*
Y3700000D02*
D03*
D20*
Y3446000D02*
D03*
D21*
X3200000Y3325000D02*
D03*
X3575000Y5100000D02*
D03*
X4575000Y700000D02*
D03*
X4750000Y1025000D02*
D03*
X4125000Y750000D02*
D03*
X4150000Y1050000D02*
D03*
X4225000Y1425000D02*
D03*
X4425000Y2095000D02*
D03*
X4275000Y2275000D02*
D03*
X2900000Y1075000D02*
D03*
X3675000Y4850000D02*
D03*
X5975000Y2400000D02*
D03*
X3700000Y4025000D02*
D03*
X2875000Y1400000D02*
D03*
D22*
X2800000Y4625000D02*
D03*
X2725000Y3800000D02*
D03*
X2775000Y3000000D02*
D03*
X2925000Y1750000D02*
D03*
X3950000Y3000000D02*
D03*
X3550000Y645000D02*
D03*
X1650000Y3275000D02*
D03*
X650000Y4675000D02*
D03*
X1450000Y1300000D02*
D03*
X1425000Y1125000D02*
D03*
X225000Y1200000D02*
D03*
%TF.MD5,9efd46b62a30f4eb7fac963769ad23e1*%
M02*
