%TF.GenerationSoftware,Altium Limited,Altium Designer,25.8.1 (18)*%
G04 Layer_Color=65535*
%FSLAX45Y45*%
%MOMM*%
%TF.SameCoordinates,CC702F55-F569-4865-8DD5-917D1CD5107B*%
%TF.FilePolarity,Positive*%
%TF.FileFunction,Legend,Top*%
%TF.Part,Single*%
G01*
G75*
%TA.AperFunction,NonConductor*%
%ADD23C,0.25000*%
%ADD24C,0.50000*%
%ADD25C,0.20000*%
%ADD26C,0.60000*%
%ADD27C,0.76200*%
%ADD28C,0.25400*%
%ADD29C,0.20320*%
D23*
X3510000Y1687500D02*
G03*
X3510000Y1687500I-12500J0D01*
G01*
X3460000Y2637500D02*
G03*
X3460000Y2637500I-12500J0D01*
G01*
X3410000Y3517500D02*
G03*
X3410000Y3517500I-12500J0D01*
G01*
Y4357500D02*
G03*
X3410000Y4357500I-12500J0D01*
G01*
X1681500Y5092000D02*
G03*
X1681500Y5092000I-12500J0D01*
G01*
X431500Y2792000D02*
G03*
X431500Y2792000I-12500J0D01*
G01*
X1681500Y2869000D02*
G03*
X1681500Y2869000I-12500J0D01*
G01*
X2990000Y645000D02*
G03*
X2990000Y645000I-12500J0D01*
G01*
X4200500Y4992000D02*
G03*
X4200500Y4992000I-12500J0D01*
G01*
D24*
X6012000Y2262000D02*
G03*
X6012000Y2262000I-15000J0D01*
G01*
D25*
X1986500Y5185000D02*
G03*
X2113500Y5185000I63500J0D01*
G01*
X736500Y2885000D02*
G03*
X863500Y2885000I63500J0D01*
G01*
X1986500Y2835000D02*
G03*
X2113500Y2835000I63500J0D01*
G01*
X4505500Y4958000D02*
G03*
X4632500Y4958000I63500J0D01*
G01*
X2948500Y2012500D02*
X3011500D01*
X2948500Y1887500D02*
X3011500D01*
X2868500Y3012500D02*
X2931500D01*
X2868500Y2887500D02*
X2931500D01*
X2851000Y3862500D02*
X2914000D01*
X2851000Y3737500D02*
X2914000D01*
X2936000Y4862500D02*
X2999000D01*
X2936000Y4737500D02*
X2999000D01*
X3699393Y5015000D02*
X3900607D01*
X3699393Y5185000D02*
X3900607D01*
X5322500Y2200000D02*
Y3000000D01*
X6077500Y2200000D02*
Y3000000D01*
X1785000Y3215000D02*
Y5185000D01*
X2315000Y3215000D02*
Y5185000D01*
X1785000D02*
X1986500D01*
X2113500D02*
X2315000D01*
X1785000Y3215000D02*
X2315000D01*
X723000Y3300000D02*
Y4862000D01*
Y3300000D02*
X977000D01*
Y4862000D01*
X723000D02*
X977000D01*
X535000Y915000D02*
Y2885000D01*
X1065000Y915000D02*
Y2885000D01*
X535000D02*
X736500D01*
X863500D02*
X1065000D01*
X535000Y915000D02*
X1065000D01*
X1785000Y865000D02*
Y2835000D01*
X2315000Y865000D02*
Y2835000D01*
X1785000D02*
X1986500D01*
X2113500D02*
X2315000D01*
X1785000Y865000D02*
X2315000D01*
X3505000Y765000D02*
Y1135000D01*
X2995000Y765000D02*
Y1135000D01*
X3505000D01*
X2995000Y765000D02*
X3505000D01*
X4304000Y2988000D02*
X4834000D01*
X4632500Y4958000D02*
X4834000D01*
X4304000D02*
X4505500D01*
X4834000Y2988000D02*
Y4958000D01*
X4304000Y2988000D02*
Y4958000D01*
X4318500Y1487500D02*
X4381500D01*
X4318500Y1612500D02*
X4381500D01*
X4286000Y1937500D02*
X4349000D01*
X4286000Y2062500D02*
X4349000D01*
X4286000Y2387500D02*
X4349000D01*
X4286000Y2512500D02*
X4349000D01*
X4301000Y1087500D02*
X4364000D01*
X4301000Y1212500D02*
X4364000D01*
X4701000Y737500D02*
X4764000D01*
X4701000Y862500D02*
X4764000D01*
X4701000Y1137500D02*
X4764000D01*
X4701000Y1262500D02*
X4764000D01*
X4301000Y687500D02*
X4364000D01*
X4301000Y812500D02*
X4364000D01*
D26*
X1915000Y5085000D02*
G03*
X1915000Y5085000I-30000J0D01*
G01*
X665000Y2785000D02*
G03*
X665000Y2785000I-30000J0D01*
G01*
X1915000Y2735000D02*
G03*
X1915000Y2735000I-30000J0D01*
G01*
X3125000Y865000D02*
G03*
X3125000Y865000I-30000J0D01*
G01*
X4434000Y4858000D02*
G03*
X4434000Y4858000I-30000J0D01*
G01*
D27*
X5544000Y2257000D02*
X5736000D01*
X5666000Y2943000D02*
X5855000D01*
X5599600Y2600000D02*
X5800400D01*
X5882000Y2656000D02*
X5920000Y2869000D01*
X5542000Y2676000D02*
X5578000Y2884000D01*
X5822000Y2311000D02*
X5859000Y2524000D01*
X5481000Y2331000D02*
X5519000Y2548000D01*
D28*
X2328215Y285823D02*
Y218111D01*
X2362070Y184256D01*
X2395926Y218111D01*
Y285823D01*
X2446710Y184256D02*
X2480565D01*
X2497493Y201183D01*
Y235039D01*
X2480565Y251967D01*
X2446710D01*
X2429782Y235039D01*
Y201183D01*
X2446710Y184256D01*
X2548277Y268895D02*
Y251967D01*
X2531349D01*
X2565205D01*
X2548277D01*
Y201183D01*
X2565205Y184256D01*
X2615988D02*
X2649844D01*
X2632916D01*
Y251967D01*
X2615988D01*
X2700628Y184256D02*
Y251967D01*
X2751411D01*
X2768339Y235039D01*
Y184256D01*
X2836051Y150400D02*
X2852979D01*
X2869906Y167328D01*
Y251967D01*
X2819123D01*
X2802195Y235039D01*
Y201183D01*
X2819123Y184256D01*
X2869906D01*
X3005330D02*
Y285823D01*
X3039185Y251967D01*
X3073041Y285823D01*
Y184256D01*
X3123825Y251967D02*
X3157680D01*
X3174608Y235039D01*
Y184256D01*
X3123825D01*
X3106897Y201183D01*
X3123825Y218111D01*
X3174608D01*
X3276175Y251967D02*
X3225392D01*
X3208464Y235039D01*
Y201183D01*
X3225392Y184256D01*
X3276175D01*
X3310031Y285823D02*
Y184256D01*
Y235039D01*
X3326959Y251967D01*
X3360815D01*
X3377743Y235039D01*
Y184256D01*
X3411598D02*
X3445454D01*
X3428526D01*
Y251967D01*
X3411598D01*
X3496238Y184256D02*
Y251967D01*
X3547021D01*
X3563949Y235039D01*
Y184256D01*
X3648589D02*
X3614733D01*
X3597805Y201183D01*
Y235039D01*
X3614733Y251967D01*
X3648589D01*
X3665516Y235039D01*
Y218111D01*
X3597805D01*
X3800940Y184256D02*
Y285823D01*
X3851723D01*
X3868651Y268895D01*
Y235039D01*
X3851723Y218111D01*
X3800940D01*
X3970218Y268895D02*
X3953290Y285823D01*
X3919435D01*
X3902507Y268895D01*
Y201183D01*
X3919435Y184256D01*
X3953290D01*
X3970218Y201183D01*
X4004074Y285823D02*
Y184256D01*
X4054858D01*
X4071785Y201183D01*
Y218111D01*
X4054858Y235039D01*
X4004074D01*
X4054858D01*
X4071785Y251967D01*
Y268895D01*
X4054858Y285823D01*
X4004074D01*
X3348041Y2451175D02*
Y2298825D01*
X3424216D01*
X3449608Y2324217D01*
Y2425784D01*
X3424216Y2451175D01*
X3348041D01*
X3601959Y2425784D02*
X3576567Y2451175D01*
X3525784D01*
X3500392Y2425784D01*
Y2400392D01*
X3525784Y2375000D01*
X3576567D01*
X3601959Y2349608D01*
Y2324217D01*
X3576567Y2298825D01*
X3525784D01*
X3500392Y2324217D01*
X3293752Y3401175D02*
Y3248825D01*
X3369927D01*
X3395319Y3274216D01*
Y3375783D01*
X3369927Y3401175D01*
X3293752D01*
X3446102Y3248825D02*
Y3401175D01*
X3522278D01*
X3547670Y3375783D01*
Y3325000D01*
X3522278Y3299608D01*
X3446102D01*
X3496886D02*
X3547670Y3248825D01*
X3243752Y4276175D02*
Y4123825D01*
X3319927D01*
X3345319Y4149216D01*
Y4250783D01*
X3319927Y4276175D01*
X3243752D01*
X3497670Y4149216D02*
Y4250783D01*
X3472278Y4276175D01*
X3421494D01*
X3396102Y4250783D01*
Y4149216D01*
X3421494Y4123825D01*
X3472278D01*
X3446886Y4174608D02*
X3497670Y4123825D01*
X3472278D02*
X3497670Y4149216D01*
X2848041Y2123825D02*
Y2276175D01*
X2924216D01*
X2949608Y2250783D01*
Y2200000D01*
X2924216Y2174608D01*
X2848041D01*
X2898825D02*
X2949608Y2123825D01*
X3101959Y2250783D02*
X3076567Y2276175D01*
X3025784D01*
X3000392Y2250783D01*
Y2225392D01*
X3025784Y2200000D01*
X3076567D01*
X3101959Y2174608D01*
Y2149216D01*
X3076567Y2123825D01*
X3025784D01*
X3000392Y2149216D01*
X2773041Y3123825D02*
Y3276175D01*
X2849217D01*
X2874608Y3250783D01*
Y3200000D01*
X2849217Y3174608D01*
X2773041D01*
X2823825D02*
X2874608Y3123825D01*
X2925392D02*
Y3276175D01*
X3001567D01*
X3026959Y3250783D01*
Y3200000D01*
X3001567Y3174608D01*
X2925392D01*
X2976175D02*
X3026959Y3123825D01*
X2748041Y3973825D02*
Y4126175D01*
X2824217D01*
X2849608Y4100784D01*
Y4050000D01*
X2824217Y4024608D01*
X2748041D01*
X2798825D02*
X2849608Y3973825D01*
X3001959Y3999217D02*
Y4100784D01*
X2976567Y4126175D01*
X2925784D01*
X2900392Y4100784D01*
Y3999217D01*
X2925784Y3973825D01*
X2976567D01*
X2951175Y4024608D02*
X3001959Y3973825D01*
X2976567D02*
X3001959Y3999217D01*
X3248041Y5126175D02*
Y4973825D01*
X3324217D01*
X3349608Y4999217D01*
Y5100784D01*
X3324217Y5126175D01*
X3248041D01*
X3400392Y4973825D02*
Y5126175D01*
X3476567D01*
X3501959Y5100784D01*
Y5050000D01*
X3476567Y5024608D01*
X3400392D01*
X2773041Y4923825D02*
Y5076175D01*
X2849217D01*
X2874608Y5050783D01*
Y5000000D01*
X2849217Y4974608D01*
X2773041D01*
X2823825D02*
X2874608Y4923825D01*
X2925392D02*
Y5076175D01*
X3001567D01*
X3026959Y5050783D01*
Y5000000D01*
X3001567Y4974608D01*
X2925392D01*
X4473041Y5226175D02*
Y5099217D01*
X4498433Y5073825D01*
X4549216D01*
X4574608Y5099217D01*
Y5226175D01*
X4726959D02*
X4625392D01*
Y5150000D01*
X4676175Y5175392D01*
X4701567D01*
X4726959Y5150000D01*
Y5099217D01*
X4701567Y5073825D01*
X4650784D01*
X4625392Y5099217D01*
X673041Y3126175D02*
Y2999217D01*
X698433Y2973825D01*
X749216D01*
X774608Y2999217D01*
Y3126175D01*
X901567Y2973825D02*
Y3126175D01*
X825392Y3050000D01*
X926959D01*
X3123041Y1576175D02*
Y1449217D01*
X3148433Y1423825D01*
X3199217D01*
X3224608Y1449217D01*
Y1576175D01*
X3275392Y1550784D02*
X3300784Y1576175D01*
X3351567D01*
X3376959Y1550784D01*
Y1525392D01*
X3351567Y1500000D01*
X3326175D01*
X3351567D01*
X3376959Y1474608D01*
Y1449217D01*
X3351567Y1423825D01*
X3300784D01*
X3275392Y1449217D01*
X1923041Y5426175D02*
Y5299216D01*
X1948433Y5273825D01*
X1999216D01*
X2024608Y5299216D01*
Y5426175D01*
X2176959Y5273825D02*
X2075392D01*
X2176959Y5375392D01*
Y5400783D01*
X2151567Y5426175D01*
X2100784D01*
X2075392Y5400783D01*
X1948433Y3076175D02*
Y2949217D01*
X1973825Y2923825D01*
X2024608D01*
X2050000Y2949217D01*
Y3076175D01*
X2100784Y2923825D02*
X2151567D01*
X2126176D01*
Y3076175D01*
X2100784Y3050784D01*
X4888042Y723825D02*
Y876176D01*
X4964217D01*
X4989609Y850784D01*
Y800000D01*
X4964217Y774608D01*
X4888042D01*
X4938825D02*
X4989609Y723825D01*
X5040392Y876176D02*
X5141959D01*
Y850784D01*
X5040392Y749217D01*
Y723825D01*
X4888042Y1123825D02*
Y1276176D01*
X4964217D01*
X4989609Y1250784D01*
Y1200000D01*
X4964217Y1174609D01*
X4888042D01*
X4938825D02*
X4989609Y1123825D01*
X5141959Y1276176D02*
X5091176Y1250784D01*
X5040392Y1200000D01*
Y1149217D01*
X5065784Y1123825D01*
X5116568D01*
X5141959Y1149217D01*
Y1174609D01*
X5116568Y1200000D01*
X5040392D01*
X3873041Y723825D02*
Y876176D01*
X3949217D01*
X3974609Y850784D01*
Y800000D01*
X3949217Y774608D01*
X3873041D01*
X3923825D02*
X3974609Y723825D01*
X4126959Y876176D02*
X4025392D01*
Y800000D01*
X4076175Y825392D01*
X4101567D01*
X4126959Y800000D01*
Y749217D01*
X4101567Y723825D01*
X4050784D01*
X4025392Y749217D01*
X3873041Y1123825D02*
Y1276176D01*
X3949217D01*
X3974609Y1250784D01*
Y1200000D01*
X3949217Y1174608D01*
X3873041D01*
X3923825D02*
X3974609Y1123825D01*
X4101567D02*
Y1276176D01*
X4025392Y1200000D01*
X4126959D01*
X3873041Y1523825D02*
Y1676175D01*
X3949217D01*
X3974609Y1650784D01*
Y1600000D01*
X3949217Y1574608D01*
X3873041D01*
X3923825D02*
X3974609Y1523825D01*
X4025392Y1650784D02*
X4050784Y1676175D01*
X4101567D01*
X4126959Y1650784D01*
Y1625392D01*
X4101567Y1600000D01*
X4076175D01*
X4101567D01*
X4126959Y1574608D01*
Y1549217D01*
X4101567Y1523825D01*
X4050784D01*
X4025392Y1549217D01*
X3873041Y1923825D02*
Y2076175D01*
X3949217D01*
X3974609Y2050784D01*
Y2000000D01*
X3949217Y1974608D01*
X3873041D01*
X3923825D02*
X3974609Y1923825D01*
X4126959D02*
X4025392D01*
X4126959Y2025392D01*
Y2050784D01*
X4101567Y2076175D01*
X4050784D01*
X4025392Y2050784D01*
X3898433Y2323825D02*
Y2476175D01*
X3974609D01*
X4000000Y2450784D01*
Y2400000D01*
X3974609Y2374608D01*
X3898433D01*
X3949217D02*
X4000000Y2323825D01*
X4050784D02*
X4101567D01*
X4076176D01*
Y2476175D01*
X4050784Y2450784D01*
X3704100Y5269980D02*
Y5422331D01*
X3780275D01*
X3805667Y5396939D01*
Y5346155D01*
X3780275Y5320764D01*
X3704100D01*
X3754884D02*
X3805667Y5269980D01*
X3856451Y5396939D02*
X3881843Y5422331D01*
X3932626D01*
X3958018Y5396939D01*
Y5295372D01*
X3932626Y5269980D01*
X3881843D01*
X3856451Y5295372D01*
Y5396939D01*
X748433Y4973825D02*
Y5126175D01*
X824608D01*
X850000Y5100784D01*
Y5050000D01*
X824608Y5024608D01*
X748433D01*
X900784Y4973825D02*
X951567D01*
X926176D01*
Y5126175D01*
X900784Y5100784D01*
X5522258Y3526175D02*
Y3373825D01*
X5598433D01*
X5623825Y3399216D01*
Y3500783D01*
X5598433Y3526175D01*
X5522258D01*
X5776176Y3500783D02*
X5750784Y3526175D01*
X5700000D01*
X5674608Y3500783D01*
Y3475392D01*
X5700000Y3450000D01*
X5750784D01*
X5776176Y3424608D01*
Y3399216D01*
X5750784Y3373825D01*
X5700000D01*
X5674608Y3399216D01*
X5826959Y3373825D02*
X5877743D01*
X5852351D01*
Y3526175D01*
X5826959Y3500783D01*
D29*
X570320Y3645320D02*
Y3721495D01*
X595712Y3696104D01*
X621103Y3721495D01*
Y3645320D01*
X646495D02*
X671887D01*
X659191D01*
Y3721495D01*
X646495Y3708800D01*
X545320Y3895320D02*
Y3971495D01*
X570712Y3946104D01*
X596103Y3971495D01*
Y3895320D01*
X672279D02*
X621495D01*
X672279Y3946104D01*
Y3958800D01*
X659583Y3971495D01*
X634191D01*
X621495Y3958800D01*
X1074217Y4741984D02*
X1061521Y4754680D01*
X1036129D01*
X1023433Y4741984D01*
Y4691201D01*
X1036129Y4678505D01*
X1061521D01*
X1074217Y4691201D01*
Y4716593D01*
X1048825D01*
X1099608Y4678505D02*
Y4754680D01*
X1150392Y4678505D01*
Y4754680D01*
X1175784D02*
Y4678505D01*
X1213872D01*
X1226567Y4691201D01*
Y4741984D01*
X1213872Y4754680D01*
X1175784D01*
X1045320Y4496495D02*
Y4445712D01*
X1070712Y4420320D01*
X1096103Y4445712D01*
Y4496495D01*
X1172279Y4483800D02*
X1159583Y4496495D01*
X1134191D01*
X1121495Y4483800D01*
Y4433016D01*
X1134191Y4420320D01*
X1159583D01*
X1172279Y4433016D01*
X1248454Y4483800D02*
X1235759Y4496495D01*
X1210367D01*
X1197671Y4483800D01*
Y4433016D01*
X1210367Y4420320D01*
X1235759D01*
X1248454Y4433016D01*
X621103Y4221495D02*
X595712D01*
X608408D01*
Y4158016D01*
X595712Y4145320D01*
X583016D01*
X570320Y4158016D01*
X621103Y3458800D02*
X608408Y3471495D01*
X583016D01*
X570320Y3458800D01*
Y3408016D01*
X583016Y3395320D01*
X608408D01*
X621103Y3408016D01*
%TF.MD5,9e73e81652483a98afce003e09309de6*%
M02*
