%TF.GenerationSoftware,Altium Limited,Altium Designer,25.8.1 (18)*%
G04 Layer_Color=8421504*
%FSLAX45Y45*%
%MOMM*%
%TF.SameCoordinates,CC702F55-F569-4865-8DD5-917D1CD5107B*%
%TF.FilePolarity,Positive*%
%TF.FileFunction,Paste,Top*%
%TF.Part,Single*%
G01*
G75*
%TA.AperFunction,SMDPad,CuDef*%
%ADD11R,1.60000X1.50000*%
%ADD12R,0.35000X0.40000*%
%ADD13R,0.65872X0.81213*%
%ADD14R,1.00000X2.30000*%
G04:AMPARAMS|DCode=15|XSize=0.45mm|YSize=1.6mm|CornerRadius=0.0495mm|HoleSize=0mm|Usage=FLASHONLY|Rotation=180.000|XOffset=0mm|YOffset=0mm|HoleType=Round|Shape=RoundedRectangle|*
%AMROUNDEDRECTD15*
21,1,0.45000,1.50100,0,0,180.0*
21,1,0.35100,1.60000,0,0,180.0*
1,1,0.09900,-0.17550,0.75050*
1,1,0.09900,0.17550,0.75050*
1,1,0.09900,0.17550,-0.75050*
1,1,0.09900,-0.17550,-0.75050*
%
%ADD15ROUNDEDRECTD15*%
D11*
X3500000Y1820000D02*
D03*
Y2180000D02*
D03*
X3450000Y2770000D02*
D03*
Y3130000D02*
D03*
X3400000Y3650000D02*
D03*
Y4010000D02*
D03*
Y4490000D02*
D03*
Y4850000D02*
D03*
D12*
X2947500Y1950000D02*
D03*
X3012500D02*
D03*
X2867500Y2950000D02*
D03*
X2932500D02*
D03*
X2850000Y3800000D02*
D03*
X2915000D02*
D03*
X2935000Y4800000D02*
D03*
X3000000D02*
D03*
X4382500Y1550000D02*
D03*
X4317500D02*
D03*
X4350000Y2000000D02*
D03*
X4285000Y2000000D02*
D03*
X4350000Y2450000D02*
D03*
X4285000D02*
D03*
X4365000Y1150000D02*
D03*
X4300000D02*
D03*
X4765000Y800000D02*
D03*
X4700000D02*
D03*
X4765000Y1200000D02*
D03*
X4700000D02*
D03*
X4365000Y750000D02*
D03*
X4300000D02*
D03*
D13*
X3732329Y5100000D02*
D03*
X3867671D02*
D03*
D14*
X5400000Y2055000D02*
D03*
X5550000D02*
D03*
X5700000D02*
D03*
X5850000D02*
D03*
X6000000D02*
D03*
X6000000Y3145000D02*
D03*
X5850000D02*
D03*
X5700000D02*
D03*
X5550000D02*
D03*
X5400000D02*
D03*
D15*
X3445000Y1255000D02*
D03*
X3380000D02*
D03*
X3315000D02*
D03*
X3250000D02*
D03*
X3185000D02*
D03*
X3120000D02*
D03*
X3055000D02*
D03*
X3445000Y645000D02*
D03*
X3380000D02*
D03*
X3315000D02*
D03*
X3250000D02*
D03*
X3185000D02*
D03*
X3120000D02*
D03*
X3055000D02*
D03*
%TF.MD5,6eafeefd4aecd66babc4dbb5c068a067*%
M02*
