%TF.GenerationSoftware,Altium Limited,Altium Designer,25.8.1 (18)*%
G04 Layer_Physical_Order=4*
G04 Layer_Color=16711680*
%FSLAX45Y45*%
%MOMM*%
%TF.SameCoordinates,CC702F55-F569-4865-8DD5-917D1CD5107B*%
%TF.FilePolarity,Positive*%
%TF.FileFunction,Copper,L4,Bot,Signal*%
%TF.Part,Single*%
G01*
G75*
%TA.AperFunction,ComponentPad*%
%ADD17C,1.50000*%
%ADD18R,1.50000X1.50000*%
%ADD19C,1.55000*%
%ADD20R,1.55000X1.55000*%
%TA.AperFunction,ViaPad*%
%ADD21C,1.00000*%
%ADD22C,0.70000*%
G36*
X6368882Y5615250D02*
X6415109Y5596102D01*
X6456708Y5568299D01*
X6474394Y5550605D01*
X6500000Y5525000D01*
Y1153513D01*
X6475000Y1138712D01*
X6465692Y1143818D01*
X6394151Y1175465D01*
X6319483Y1198796D01*
X6242651Y1213510D01*
X6164647Y1219416D01*
X6086475Y1216439D01*
X6009145Y1204618D01*
X5933655Y1184104D01*
X5860978Y1155162D01*
X5792051Y1118166D01*
X5727763Y1073592D01*
X5668945Y1022017D01*
X5616355Y964104D01*
X5570670Y900602D01*
X5532481Y832329D01*
X5502280Y760166D01*
X5480456Y685043D01*
X5467291Y607931D01*
X5462955Y529823D01*
X5467504Y451728D01*
X5480880Y374651D01*
X5502908Y299589D01*
X5533306Y227509D01*
X5571682Y159340D01*
X5578657Y149100D01*
X5566971Y127000D01*
X0Y127000D01*
Y5514645D01*
X0D01*
X-0Y5514645D01*
X-1Y5514647D01*
X-406Y5523012D01*
X-3665Y5539425D01*
X-10069Y5554886D01*
X-15418Y5562884D01*
X-10204Y5584620D01*
X-6217Y5591503D01*
X14844Y5605580D01*
X45913Y5618449D01*
X78896Y5625005D01*
X95710Y5624999D01*
X6294789Y5625000D01*
X6294790Y5624999D01*
X6294790Y5624999D01*
X6319807Y5625006D01*
X6368882Y5615250D01*
D02*
G37*
%LPC*%
G36*
X3584216Y5170000D02*
X3565784D01*
X3547981Y5165229D01*
X3532019Y5156014D01*
X3518986Y5142981D01*
X3509770Y5127019D01*
X3505000Y5109216D01*
Y5090784D01*
X3509770Y5072981D01*
X3518986Y5057019D01*
X3532019Y5043986D01*
X3547981Y5034770D01*
X3565784Y5030000D01*
X3584216D01*
X3602019Y5034770D01*
X3617981Y5043986D01*
X3631014Y5057019D01*
X3640229Y5072981D01*
X3645000Y5090784D01*
Y5109216D01*
X3640229Y5127019D01*
X3631014Y5142981D01*
X3617981Y5156014D01*
X3602019Y5165229D01*
X3584216Y5170000D01*
D02*
G37*
G36*
X2443507Y5057000D02*
X2418493D01*
X2394332Y5050526D01*
X2372669Y5038019D01*
X2354981Y5020331D01*
X2342474Y4998668D01*
X2336000Y4974507D01*
Y4949493D01*
X2342474Y4925332D01*
X2354981Y4903669D01*
X2372669Y4885981D01*
X2394332Y4873474D01*
X2418493Y4867000D01*
X2443507D01*
X2467668Y4873474D01*
X2489331Y4885981D01*
X2507019Y4903669D01*
X2519526Y4925332D01*
X2526000Y4949493D01*
Y4974507D01*
X2519526Y4998668D01*
X2507019Y5020331D01*
X2489331Y5038019D01*
X2467668Y5050526D01*
X2443507Y5057000D01*
D02*
G37*
G36*
X1764000D02*
X1574000D01*
Y4867000D01*
X1764000D01*
Y5057000D01*
D02*
G37*
G36*
X3684216Y4920000D02*
X3665784D01*
X3647981Y4915229D01*
X3632019Y4906014D01*
X3618986Y4892981D01*
X3609771Y4877019D01*
X3605000Y4859216D01*
Y4840784D01*
X3609771Y4822981D01*
X3618986Y4807019D01*
X3632019Y4793986D01*
X3647981Y4784770D01*
X3665784Y4780000D01*
X3684216D01*
X3702019Y4784770D01*
X3717981Y4793986D01*
X3731014Y4807019D01*
X3740230Y4822981D01*
X3745000Y4840784D01*
Y4859216D01*
X3740230Y4877019D01*
X3731014Y4892981D01*
X3717981Y4906014D01*
X3702019Y4915229D01*
X3684216Y4920000D01*
D02*
G37*
G36*
X4962507Y4957000D02*
X4937493D01*
X4913332Y4950526D01*
X4891669Y4938019D01*
X4873981Y4920331D01*
X4861474Y4898669D01*
X4855000Y4874507D01*
Y4849493D01*
X4861474Y4825332D01*
X4873981Y4803669D01*
X4891669Y4785982D01*
X4913332Y4773475D01*
X4937493Y4767000D01*
X4962507D01*
X4986668Y4773475D01*
X5008331Y4785982D01*
X5026019Y4803669D01*
X5038526Y4825332D01*
X5045000Y4849493D01*
Y4874507D01*
X5038526Y4898669D01*
X5026019Y4920331D01*
X5008331Y4938019D01*
X4986668Y4950526D01*
X4962507Y4957000D01*
D02*
G37*
G36*
X4283000D02*
X4093000D01*
Y4767000D01*
X4283000D01*
Y4957000D01*
D02*
G37*
G36*
X863547Y4818900D02*
X862700D01*
Y4728700D01*
X952900D01*
Y4729547D01*
X945888Y4755718D01*
X932341Y4779182D01*
X913182Y4798340D01*
X889718Y4811888D01*
X863547Y4818900D01*
D02*
G37*
G36*
X837300D02*
X836453D01*
X810282Y4811888D01*
X786818Y4798340D01*
X767660Y4779182D01*
X754113Y4755718D01*
X747100Y4729547D01*
Y4728700D01*
X837300D01*
Y4818900D01*
D02*
G37*
G36*
X662700Y4735116D02*
Y4687700D01*
X710116D01*
X701205Y4709214D01*
X684214Y4726205D01*
X662700Y4735116D01*
D02*
G37*
G36*
X637300D02*
X615786Y4726205D01*
X598795Y4709214D01*
X589884Y4687700D01*
X637300D01*
Y4735116D01*
D02*
G37*
G36*
X2812700Y4685116D02*
Y4637700D01*
X2860116D01*
X2851205Y4659214D01*
X2834214Y4676205D01*
X2812700Y4685116D01*
D02*
G37*
G36*
X2787300D02*
X2765786Y4676205D01*
X2748795Y4659214D01*
X2739884Y4637700D01*
X2787300D01*
Y4685116D01*
D02*
G37*
G36*
X710116Y4662300D02*
X662700D01*
Y4614884D01*
X684214Y4623795D01*
X701205Y4640786D01*
X710116Y4662300D01*
D02*
G37*
G36*
X637300D02*
X589884D01*
X598795Y4640786D01*
X615786Y4623795D01*
X637300Y4614884D01*
Y4662300D01*
D02*
G37*
G36*
X952900Y4703300D02*
X862700D01*
Y4613100D01*
X863547D01*
X889718Y4620112D01*
X913182Y4633660D01*
X932341Y4652818D01*
X945888Y4676282D01*
X952900Y4702453D01*
Y4703300D01*
D02*
G37*
G36*
X837300D02*
X747100D01*
Y4702453D01*
X754113Y4676282D01*
X767660Y4652818D01*
X786818Y4633660D01*
X810282Y4620112D01*
X836453Y4613100D01*
X837300D01*
Y4703300D01*
D02*
G37*
G36*
X2443507Y4803000D02*
X2418493D01*
X2394332Y4796526D01*
X2372669Y4784019D01*
X2354981Y4766331D01*
X2342474Y4744668D01*
X2336000Y4720507D01*
Y4695493D01*
X2342474Y4671332D01*
X2354981Y4649669D01*
X2372669Y4631981D01*
X2394332Y4619474D01*
X2418493Y4613000D01*
X2443507D01*
X2467668Y4619474D01*
X2489331Y4631981D01*
X2507019Y4649669D01*
X2519526Y4671332D01*
X2526000Y4695493D01*
Y4720507D01*
X2519526Y4744668D01*
X2507019Y4766331D01*
X2489331Y4784019D01*
X2467668Y4796526D01*
X2443507Y4803000D01*
D02*
G37*
G36*
X1681507D02*
X1656493D01*
X1632332Y4796526D01*
X1610669Y4784019D01*
X1592981Y4766331D01*
X1580474Y4744668D01*
X1574000Y4720507D01*
Y4695493D01*
X1580474Y4671332D01*
X1592981Y4649669D01*
X1610669Y4631981D01*
X1632332Y4619474D01*
X1656493Y4613000D01*
X1681507D01*
X1705668Y4619474D01*
X1727331Y4631981D01*
X1745019Y4649669D01*
X1757526Y4671332D01*
X1764000Y4695493D01*
Y4720507D01*
X1757526Y4744668D01*
X1745019Y4766331D01*
X1727331Y4784019D01*
X1705668Y4796526D01*
X1681507Y4803000D01*
D02*
G37*
G36*
X2860116Y4612300D02*
X2812700D01*
Y4564884D01*
X2834214Y4573795D01*
X2851205Y4590786D01*
X2860116Y4612300D01*
D02*
G37*
G36*
X2787300D02*
X2739884D01*
X2748795Y4590786D01*
X2765786Y4573795D01*
X2787300Y4564884D01*
Y4612300D01*
D02*
G37*
G36*
X4962507Y4703000D02*
X4937493D01*
X4913332Y4696526D01*
X4891669Y4684019D01*
X4873981Y4666331D01*
X4861474Y4644669D01*
X4855000Y4620507D01*
Y4595493D01*
X4861474Y4571332D01*
X4873981Y4549669D01*
X4891669Y4531982D01*
X4913332Y4519475D01*
X4937493Y4513000D01*
X4962507D01*
X4986668Y4519475D01*
X5008331Y4531982D01*
X5026019Y4549669D01*
X5038526Y4571332D01*
X5045000Y4595493D01*
Y4620507D01*
X5038526Y4644669D01*
X5026019Y4666331D01*
X5008331Y4684019D01*
X4986668Y4696526D01*
X4962507Y4703000D01*
D02*
G37*
G36*
X4200507D02*
X4175493D01*
X4151332Y4696526D01*
X4129669Y4684019D01*
X4111981Y4666331D01*
X4099474Y4644669D01*
X4093000Y4620507D01*
Y4595493D01*
X4099474Y4571332D01*
X4111981Y4549669D01*
X4129669Y4531982D01*
X4151332Y4519475D01*
X4175493Y4513000D01*
X4200507D01*
X4224668Y4519475D01*
X4246331Y4531982D01*
X4264019Y4549669D01*
X4276526Y4571332D01*
X4283000Y4595493D01*
Y4620507D01*
X4276526Y4644669D01*
X4264019Y4666331D01*
X4246331Y4684019D01*
X4224668Y4696526D01*
X4200507Y4703000D01*
D02*
G37*
G36*
X862836Y4559500D02*
X837164D01*
X812366Y4552855D01*
X790134Y4540019D01*
X771981Y4521866D01*
X759145Y4499634D01*
X752500Y4474836D01*
Y4449164D01*
X759145Y4424366D01*
X771981Y4402134D01*
X790134Y4383981D01*
X812366Y4371145D01*
X837164Y4364500D01*
X862836D01*
X887634Y4371145D01*
X909866Y4383981D01*
X928019Y4402134D01*
X940855Y4424366D01*
X947500Y4449164D01*
Y4474836D01*
X940855Y4499634D01*
X928019Y4521866D01*
X909866Y4540019D01*
X887634Y4552855D01*
X862836Y4559500D01*
D02*
G37*
G36*
X2443507Y4549000D02*
X2418493D01*
X2394332Y4542526D01*
X2372669Y4530019D01*
X2354981Y4512331D01*
X2342474Y4490668D01*
X2336000Y4466507D01*
Y4441493D01*
X2342474Y4417332D01*
X2354981Y4395669D01*
X2372669Y4377981D01*
X2394332Y4365474D01*
X2418493Y4359000D01*
X2443507D01*
X2467668Y4365474D01*
X2489331Y4377981D01*
X2507019Y4395669D01*
X2519526Y4417332D01*
X2526000Y4441493D01*
Y4466507D01*
X2519526Y4490668D01*
X2507019Y4512331D01*
X2489331Y4530019D01*
X2467668Y4542526D01*
X2443507Y4549000D01*
D02*
G37*
G36*
X1681507D02*
X1656493D01*
X1632332Y4542526D01*
X1610669Y4530019D01*
X1592981Y4512331D01*
X1580474Y4490668D01*
X1574000Y4466507D01*
Y4441493D01*
X1580474Y4417332D01*
X1592981Y4395669D01*
X1610669Y4377981D01*
X1632332Y4365474D01*
X1656493Y4359000D01*
X1681507D01*
X1705668Y4365474D01*
X1727331Y4377981D01*
X1745019Y4395669D01*
X1757526Y4417332D01*
X1764000Y4441493D01*
Y4466507D01*
X1757526Y4490668D01*
X1745019Y4512331D01*
X1727331Y4530019D01*
X1705668Y4542526D01*
X1681507Y4549000D01*
D02*
G37*
G36*
X4962507Y4449000D02*
X4937493D01*
X4913332Y4442526D01*
X4891669Y4430019D01*
X4873981Y4412331D01*
X4861474Y4390669D01*
X4855000Y4366507D01*
Y4341493D01*
X4861474Y4317332D01*
X4873981Y4295669D01*
X4891669Y4277982D01*
X4913332Y4265475D01*
X4937493Y4259000D01*
X4962507D01*
X4986668Y4265475D01*
X5008331Y4277982D01*
X5026019Y4295669D01*
X5038526Y4317332D01*
X5045000Y4341493D01*
Y4366507D01*
X5038526Y4390669D01*
X5026019Y4412331D01*
X5008331Y4430019D01*
X4986668Y4442526D01*
X4962507Y4449000D01*
D02*
G37*
G36*
X4200507D02*
X4175493D01*
X4151332Y4442526D01*
X4129669Y4430019D01*
X4111981Y4412331D01*
X4099474Y4390669D01*
X4093000Y4366507D01*
Y4341493D01*
X4099474Y4317332D01*
X4111981Y4295669D01*
X4129669Y4277982D01*
X4151332Y4265475D01*
X4175493Y4259000D01*
X4200507D01*
X4224668Y4265475D01*
X4246331Y4277982D01*
X4264019Y4295669D01*
X4276526Y4317332D01*
X4283000Y4341493D01*
Y4366507D01*
X4276526Y4390669D01*
X4264019Y4412331D01*
X4246331Y4430019D01*
X4224668Y4442526D01*
X4200507Y4449000D01*
D02*
G37*
G36*
X862836Y4305500D02*
X837164D01*
X812366Y4298855D01*
X790134Y4286019D01*
X771981Y4267866D01*
X759145Y4245634D01*
X752500Y4220836D01*
Y4195164D01*
X759145Y4170366D01*
X771981Y4148134D01*
X790134Y4129981D01*
X812366Y4117145D01*
X837164Y4110500D01*
X862836D01*
X887634Y4117145D01*
X909866Y4129981D01*
X928019Y4148134D01*
X940855Y4170366D01*
X947500Y4195164D01*
Y4220836D01*
X940855Y4245634D01*
X928019Y4267866D01*
X909866Y4286019D01*
X887634Y4298855D01*
X862836Y4305500D01*
D02*
G37*
G36*
X2443507Y4295000D02*
X2418493D01*
X2394332Y4288526D01*
X2372669Y4276019D01*
X2354981Y4258331D01*
X2342474Y4236668D01*
X2336000Y4212507D01*
Y4187493D01*
X2342474Y4163332D01*
X2354981Y4141669D01*
X2372669Y4123981D01*
X2394332Y4111474D01*
X2418493Y4105000D01*
X2443507D01*
X2467668Y4111474D01*
X2489331Y4123981D01*
X2507019Y4141669D01*
X2519526Y4163332D01*
X2526000Y4187493D01*
Y4212507D01*
X2519526Y4236668D01*
X2507019Y4258331D01*
X2489331Y4276019D01*
X2467668Y4288526D01*
X2443507Y4295000D01*
D02*
G37*
G36*
X1681507D02*
X1656493D01*
X1632332Y4288526D01*
X1610669Y4276019D01*
X1592981Y4258331D01*
X1580474Y4236668D01*
X1574000Y4212507D01*
Y4187493D01*
X1580474Y4163332D01*
X1592981Y4141669D01*
X1610669Y4123981D01*
X1632332Y4111474D01*
X1656493Y4105000D01*
X1681507D01*
X1705668Y4111474D01*
X1727331Y4123981D01*
X1745019Y4141669D01*
X1757526Y4163332D01*
X1764000Y4187493D01*
Y4212507D01*
X1757526Y4236668D01*
X1745019Y4258331D01*
X1727331Y4276019D01*
X1705668Y4288526D01*
X1681507Y4295000D01*
D02*
G37*
G36*
X4962507Y4195000D02*
X4937493D01*
X4913332Y4188526D01*
X4891669Y4176019D01*
X4873981Y4158331D01*
X4861474Y4136669D01*
X4855000Y4112507D01*
Y4087493D01*
X4861474Y4063332D01*
X4873981Y4041669D01*
X4891669Y4023982D01*
X4913332Y4011475D01*
X4937493Y4005000D01*
X4962507D01*
X4986668Y4011475D01*
X5008331Y4023982D01*
X5026019Y4041669D01*
X5038526Y4063332D01*
X5045000Y4087493D01*
Y4112507D01*
X5038526Y4136669D01*
X5026019Y4158331D01*
X5008331Y4176019D01*
X4986668Y4188526D01*
X4962507Y4195000D01*
D02*
G37*
G36*
X4200507D02*
X4175493D01*
X4151332Y4188526D01*
X4129669Y4176019D01*
X4111981Y4158331D01*
X4099474Y4136669D01*
X4093000Y4112507D01*
Y4087493D01*
X4099474Y4063332D01*
X4111981Y4041669D01*
X4129669Y4023982D01*
X4151332Y4011475D01*
X4175493Y4005000D01*
X4200507D01*
X4224668Y4011475D01*
X4246331Y4023982D01*
X4264019Y4041669D01*
X4276526Y4063332D01*
X4283000Y4087493D01*
Y4112507D01*
X4276526Y4136669D01*
X4264019Y4158331D01*
X4246331Y4176019D01*
X4224668Y4188526D01*
X4200507Y4195000D01*
D02*
G37*
G36*
X3709216Y4095000D02*
X3690784D01*
X3672981Y4090230D01*
X3657019Y4081014D01*
X3643986Y4067981D01*
X3634770Y4052019D01*
X3630000Y4034216D01*
Y4015784D01*
X3634770Y3997981D01*
X3643986Y3982019D01*
X3657019Y3968986D01*
X3672981Y3959771D01*
X3690784Y3955000D01*
X3709216D01*
X3727019Y3959771D01*
X3742981Y3968986D01*
X3756014Y3982019D01*
X3765229Y3997981D01*
X3770000Y4015784D01*
Y4034216D01*
X3765229Y4052019D01*
X3756014Y4067981D01*
X3742981Y4081014D01*
X3727019Y4090230D01*
X3709216Y4095000D01*
D02*
G37*
G36*
X862836Y4051500D02*
X837164D01*
X812366Y4044855D01*
X790134Y4032019D01*
X771981Y4013866D01*
X759145Y3991634D01*
X752500Y3966836D01*
Y3941164D01*
X759145Y3916366D01*
X771981Y3894134D01*
X790134Y3875981D01*
X812366Y3863145D01*
X837164Y3856500D01*
X862836D01*
X887634Y3863145D01*
X909866Y3875981D01*
X928019Y3894134D01*
X940855Y3916366D01*
X947500Y3941164D01*
Y3966836D01*
X940855Y3991634D01*
X928019Y4013866D01*
X909866Y4032019D01*
X887634Y4044855D01*
X862836Y4051500D01*
D02*
G37*
G36*
X2443507Y4041000D02*
X2418493D01*
X2394332Y4034526D01*
X2372669Y4022019D01*
X2354981Y4004331D01*
X2342474Y3982668D01*
X2336000Y3958507D01*
Y3933493D01*
X2342474Y3909332D01*
X2354981Y3887669D01*
X2372669Y3869981D01*
X2394332Y3857474D01*
X2418493Y3851000D01*
X2443507D01*
X2467668Y3857474D01*
X2489331Y3869981D01*
X2507019Y3887669D01*
X2519526Y3909332D01*
X2526000Y3933493D01*
Y3958507D01*
X2519526Y3982668D01*
X2507019Y4004331D01*
X2489331Y4022019D01*
X2467668Y4034526D01*
X2443507Y4041000D01*
D02*
G37*
G36*
X1681507D02*
X1656493D01*
X1632332Y4034526D01*
X1610669Y4022019D01*
X1592981Y4004331D01*
X1580474Y3982668D01*
X1574000Y3958507D01*
Y3933493D01*
X1580474Y3909332D01*
X1592981Y3887669D01*
X1610669Y3869981D01*
X1632332Y3857474D01*
X1656493Y3851000D01*
X1681507D01*
X1705668Y3857474D01*
X1727331Y3869981D01*
X1745019Y3887669D01*
X1757526Y3909332D01*
X1764000Y3933493D01*
Y3958507D01*
X1757526Y3982668D01*
X1745019Y4004331D01*
X1727331Y4022019D01*
X1705668Y4034526D01*
X1681507Y4041000D01*
D02*
G37*
G36*
X2737700Y3860116D02*
Y3812700D01*
X2785116D01*
X2776205Y3834214D01*
X2759214Y3851205D01*
X2737700Y3860116D01*
D02*
G37*
G36*
X2712300D02*
X2690786Y3851205D01*
X2673795Y3834214D01*
X2664884Y3812700D01*
X2712300D01*
Y3860116D01*
D02*
G37*
G36*
X4962507Y3941000D02*
X4937493D01*
X4913332Y3934526D01*
X4891669Y3922019D01*
X4873981Y3904331D01*
X4861474Y3882669D01*
X4855000Y3858507D01*
Y3833493D01*
X4861474Y3809332D01*
X4873981Y3787669D01*
X4891669Y3769982D01*
X4913332Y3757475D01*
X4937493Y3751000D01*
X4962507D01*
X4986668Y3757475D01*
X5008331Y3769982D01*
X5026019Y3787669D01*
X5038526Y3809332D01*
X5045000Y3833493D01*
Y3858507D01*
X5038526Y3882669D01*
X5026019Y3904331D01*
X5008331Y3922019D01*
X4986668Y3934526D01*
X4962507Y3941000D01*
D02*
G37*
G36*
X4200507D02*
X4175493D01*
X4151332Y3934526D01*
X4129669Y3922019D01*
X4111981Y3904331D01*
X4099474Y3882669D01*
X4093000Y3858507D01*
Y3833493D01*
X4099474Y3809332D01*
X4111981Y3787669D01*
X4129669Y3769982D01*
X4151332Y3757475D01*
X4175493Y3751000D01*
X4200507D01*
X4224668Y3757475D01*
X4246331Y3769982D01*
X4264019Y3787669D01*
X4276526Y3809332D01*
X4283000Y3833493D01*
Y3858507D01*
X4276526Y3882669D01*
X4264019Y3904331D01*
X4246331Y3922019D01*
X4224668Y3934526D01*
X4200507Y3941000D01*
D02*
G37*
G36*
X2785116Y3787300D02*
X2737700D01*
Y3739884D01*
X2759214Y3748795D01*
X2776205Y3765786D01*
X2785116Y3787300D01*
D02*
G37*
G36*
X2712300D02*
X2664884D01*
X2673795Y3765786D01*
X2690786Y3748795D01*
X2712300Y3739884D01*
Y3787300D01*
D02*
G37*
G36*
X862836Y3797500D02*
X837164D01*
X812366Y3790855D01*
X790134Y3778019D01*
X771981Y3759866D01*
X759145Y3737634D01*
X752500Y3712836D01*
Y3687164D01*
X759145Y3662366D01*
X771981Y3640134D01*
X790134Y3621981D01*
X812366Y3609145D01*
X837164Y3602500D01*
X862836D01*
X887634Y3609145D01*
X909866Y3621981D01*
X928019Y3640134D01*
X940855Y3662366D01*
X947500Y3687164D01*
Y3712836D01*
X940855Y3737634D01*
X928019Y3759866D01*
X909866Y3778019D01*
X887634Y3790855D01*
X862836Y3797500D01*
D02*
G37*
G36*
X2443507Y3787000D02*
X2418493D01*
X2394332Y3780526D01*
X2372669Y3768019D01*
X2354981Y3750331D01*
X2342474Y3728668D01*
X2336000Y3704507D01*
Y3679493D01*
X2342474Y3655332D01*
X2354981Y3633669D01*
X2372669Y3615981D01*
X2394332Y3603474D01*
X2418493Y3597000D01*
X2443507D01*
X2467668Y3603474D01*
X2489331Y3615981D01*
X2507019Y3633669D01*
X2519526Y3655332D01*
X2526000Y3679493D01*
Y3704507D01*
X2519526Y3728668D01*
X2507019Y3750331D01*
X2489331Y3768019D01*
X2467668Y3780526D01*
X2443507Y3787000D01*
D02*
G37*
G36*
X1681507D02*
X1656493D01*
X1632332Y3780526D01*
X1610669Y3768019D01*
X1592981Y3750331D01*
X1580474Y3728668D01*
X1574000Y3704507D01*
Y3679493D01*
X1580474Y3655332D01*
X1592981Y3633669D01*
X1610669Y3615981D01*
X1632332Y3603474D01*
X1656493Y3597000D01*
X1681507D01*
X1705668Y3603474D01*
X1727331Y3615981D01*
X1745019Y3633669D01*
X1757526Y3655332D01*
X1764000Y3679493D01*
Y3704507D01*
X1757526Y3728668D01*
X1745019Y3750331D01*
X1727331Y3768019D01*
X1705668Y3780526D01*
X1681507Y3787000D01*
D02*
G37*
G36*
X4962507Y3687000D02*
X4937493D01*
X4913332Y3680526D01*
X4891669Y3668019D01*
X4873981Y3650331D01*
X4861474Y3628669D01*
X4855000Y3604507D01*
Y3579493D01*
X4861474Y3555332D01*
X4873981Y3533669D01*
X4891669Y3515982D01*
X4913332Y3503475D01*
X4937493Y3497000D01*
X4962507D01*
X4986668Y3503475D01*
X5008331Y3515982D01*
X5026019Y3533669D01*
X5038526Y3555332D01*
X5045000Y3579493D01*
Y3604507D01*
X5038526Y3628669D01*
X5026019Y3650331D01*
X5008331Y3668019D01*
X4986668Y3680526D01*
X4962507Y3687000D01*
D02*
G37*
G36*
X4200507D02*
X4175493D01*
X4151332Y3680526D01*
X4129669Y3668019D01*
X4111981Y3650331D01*
X4099474Y3628669D01*
X4093000Y3604507D01*
Y3579493D01*
X4099474Y3555332D01*
X4111981Y3533669D01*
X4129669Y3515982D01*
X4151332Y3503475D01*
X4175493Y3497000D01*
X4200507D01*
X4224668Y3503475D01*
X4246331Y3515982D01*
X4264019Y3533669D01*
X4276526Y3555332D01*
X4283000Y3579493D01*
Y3604507D01*
X4276526Y3628669D01*
X4264019Y3650331D01*
X4246331Y3668019D01*
X4224668Y3680526D01*
X4200507Y3687000D01*
D02*
G37*
G36*
X1682218Y3538400D02*
X1681700D01*
Y3450700D01*
X1769400D01*
Y3451218D01*
X1762558Y3476753D01*
X1749340Y3499647D01*
X1730647Y3518340D01*
X1707753Y3531558D01*
X1682218Y3538400D01*
D02*
G37*
G36*
X1656300D02*
X1655782D01*
X1630247Y3531558D01*
X1607353Y3518340D01*
X1588660Y3499647D01*
X1575442Y3476753D01*
X1568600Y3451218D01*
Y3450700D01*
X1656300D01*
Y3538400D01*
D02*
G37*
G36*
X947500Y3543500D02*
X752500D01*
Y3348500D01*
X947500D01*
Y3543500D01*
D02*
G37*
G36*
X2443507Y3533000D02*
X2418493D01*
X2394332Y3526526D01*
X2372669Y3514019D01*
X2354981Y3496331D01*
X2342474Y3474668D01*
X2336000Y3450507D01*
Y3425493D01*
X2342474Y3401332D01*
X2354981Y3379669D01*
X2372669Y3361981D01*
X2394332Y3349474D01*
X2418493Y3343000D01*
X2443507D01*
X2467668Y3349474D01*
X2489331Y3361981D01*
X2507019Y3379669D01*
X2519526Y3401332D01*
X2526000Y3425493D01*
Y3450507D01*
X2519526Y3474668D01*
X2507019Y3496331D01*
X2489331Y3514019D01*
X2467668Y3526526D01*
X2443507Y3533000D01*
D02*
G37*
G36*
X1769400Y3425300D02*
X1568600D01*
Y3424782D01*
X1575442Y3399247D01*
X1588660Y3376353D01*
X1607353Y3357660D01*
X1615309Y3353067D01*
X1615761Y3327611D01*
X1614340Y3324758D01*
X1598795Y3309214D01*
X1589884Y3287700D01*
X1710116D01*
X1701205Y3309214D01*
X1695217Y3315201D01*
X1702689Y3343085D01*
X1707753Y3344442D01*
X1730647Y3357660D01*
X1749340Y3376353D01*
X1762558Y3399247D01*
X1769400Y3424782D01*
Y3425300D01*
D02*
G37*
G36*
X3209216Y3395000D02*
X3190784D01*
X3172981Y3390229D01*
X3157019Y3381014D01*
X3143986Y3367981D01*
X3134770Y3352019D01*
X3130000Y3334216D01*
Y3315784D01*
X3134770Y3297981D01*
X3143986Y3282019D01*
X3157019Y3268986D01*
X3172981Y3259770D01*
X3190784Y3255000D01*
X3209216D01*
X3227019Y3259770D01*
X3242981Y3268986D01*
X3256014Y3282019D01*
X3265229Y3297981D01*
X3270000Y3315784D01*
Y3334216D01*
X3265229Y3352019D01*
X3256014Y3367981D01*
X3242981Y3381014D01*
X3227019Y3390229D01*
X3209216Y3395000D01*
D02*
G37*
G36*
X4962507Y3433000D02*
X4937493D01*
X4913332Y3426526D01*
X4891669Y3414019D01*
X4873981Y3396331D01*
X4861474Y3374669D01*
X4855000Y3350507D01*
Y3325493D01*
X4861474Y3301332D01*
X4873981Y3279669D01*
X4891669Y3261982D01*
X4913332Y3249475D01*
X4937493Y3243000D01*
X4962507D01*
X4986668Y3249475D01*
X5008331Y3261982D01*
X5026019Y3279669D01*
X5038526Y3301332D01*
X5045000Y3325493D01*
Y3350507D01*
X5038526Y3374669D01*
X5026019Y3396331D01*
X5008331Y3414019D01*
X4986668Y3426526D01*
X4962507Y3433000D01*
D02*
G37*
G36*
X4200507D02*
X4175493D01*
X4151332Y3426526D01*
X4129669Y3414019D01*
X4111981Y3396331D01*
X4099474Y3374669D01*
X4093000Y3350507D01*
Y3325493D01*
X4099474Y3301332D01*
X4111981Y3279669D01*
X4129669Y3261982D01*
X4151332Y3249475D01*
X4175493Y3243000D01*
X4200507D01*
X4224668Y3249475D01*
X4246331Y3261982D01*
X4264019Y3279669D01*
X4276526Y3301332D01*
X4283000Y3325493D01*
Y3350507D01*
X4276526Y3374669D01*
X4264019Y3396331D01*
X4246331Y3414019D01*
X4224668Y3426526D01*
X4200507Y3433000D01*
D02*
G37*
G36*
X1710116Y3262300D02*
X1662700D01*
Y3214884D01*
X1684214Y3223795D01*
X1701205Y3240786D01*
X1710116Y3262300D01*
D02*
G37*
G36*
X1637300D02*
X1589884D01*
X1598795Y3240786D01*
X1615786Y3223795D01*
X1637300Y3214884D01*
Y3262300D01*
D02*
G37*
G36*
X4201218Y3184400D02*
X4200700D01*
Y3096700D01*
X4288400D01*
Y3097218D01*
X4281558Y3122753D01*
X4268340Y3145647D01*
X4249647Y3164340D01*
X4226753Y3177558D01*
X4201218Y3184400D01*
D02*
G37*
G36*
X4175300D02*
X4174782D01*
X4149247Y3177558D01*
X4126353Y3164340D01*
X4107660Y3145647D01*
X4094442Y3122753D01*
X4087600Y3097218D01*
Y3096700D01*
X4175300D01*
Y3184400D01*
D02*
G37*
G36*
X3962700Y3060116D02*
Y3012700D01*
X4010116D01*
X4001205Y3034214D01*
X3984214Y3051205D01*
X3962700Y3060116D01*
D02*
G37*
G36*
X3937300D02*
X3915786Y3051205D01*
X3898795Y3034214D01*
X3889884Y3012700D01*
X3937300D01*
Y3060116D01*
D02*
G37*
G36*
X2787700D02*
Y3012700D01*
X2835116D01*
X2826205Y3034214D01*
X2809214Y3051205D01*
X2787700Y3060116D01*
D02*
G37*
G36*
X2762300D02*
X2740786Y3051205D01*
X2723795Y3034214D01*
X2714884Y3012700D01*
X2762300D01*
Y3060116D01*
D02*
G37*
G36*
X4962507Y3179000D02*
X4937493D01*
X4913332Y3172526D01*
X4891669Y3160019D01*
X4873981Y3142331D01*
X4861474Y3120669D01*
X4855000Y3096507D01*
Y3071493D01*
X4861474Y3047332D01*
X4873981Y3025669D01*
X4891669Y3007982D01*
X4913332Y2995475D01*
X4937493Y2989000D01*
X4962507D01*
X4986668Y2995475D01*
X5008331Y3007982D01*
X5026019Y3025669D01*
X5038526Y3047332D01*
X5045000Y3071493D01*
Y3096507D01*
X5038526Y3120669D01*
X5026019Y3142331D01*
X5008331Y3160019D01*
X4986668Y3172526D01*
X4962507Y3179000D01*
D02*
G37*
G36*
X4288400Y3071300D02*
X4200700D01*
Y2983600D01*
X4201218D01*
X4226753Y2990442D01*
X4249647Y3003660D01*
X4268340Y3022353D01*
X4281558Y3045247D01*
X4288400Y3070782D01*
Y3071300D01*
D02*
G37*
G36*
X4175300D02*
X4087600D01*
Y3070782D01*
X4094442Y3045247D01*
X4107660Y3022353D01*
X4126353Y3003660D01*
X4149247Y2990442D01*
X4174782Y2983600D01*
X4175300D01*
Y3071300D01*
D02*
G37*
G36*
X4010116Y2987300D02*
X3962700D01*
Y2939884D01*
X3984214Y2948795D01*
X4001205Y2965786D01*
X4010116Y2987300D01*
D02*
G37*
G36*
X3937300D02*
X3889884D01*
X3898795Y2965786D01*
X3915786Y2948795D01*
X3937300Y2939884D01*
Y2987300D01*
D02*
G37*
G36*
X2835116D02*
X2787700D01*
Y2939884D01*
X2809214Y2948795D01*
X2826205Y2965786D01*
X2835116Y2987300D01*
D02*
G37*
G36*
X2762300D02*
X2714884D01*
X2723795Y2965786D01*
X2740786Y2948795D01*
X2762300Y2939884D01*
Y2987300D01*
D02*
G37*
G36*
X2443507Y2834000D02*
X2418493D01*
X2394332Y2827526D01*
X2372669Y2815019D01*
X2354981Y2797331D01*
X2342474Y2775669D01*
X2336000Y2751507D01*
Y2726493D01*
X2342474Y2702332D01*
X2354981Y2680669D01*
X2372669Y2662981D01*
X2394332Y2650475D01*
X2418493Y2644000D01*
X2443507D01*
X2467668Y2650475D01*
X2489331Y2662981D01*
X2507019Y2680669D01*
X2519526Y2702332D01*
X2526000Y2726493D01*
Y2751507D01*
X2519526Y2775669D01*
X2507019Y2797331D01*
X2489331Y2815019D01*
X2467668Y2827526D01*
X2443507Y2834000D01*
D02*
G37*
G36*
X1764000D02*
X1574000D01*
Y2644000D01*
X1764000D01*
Y2834000D01*
D02*
G37*
G36*
X1193507Y2757000D02*
X1168493D01*
X1144331Y2750526D01*
X1122669Y2738019D01*
X1104981Y2720331D01*
X1092474Y2698668D01*
X1086000Y2674507D01*
Y2649493D01*
X1092474Y2625332D01*
X1104981Y2603669D01*
X1122669Y2585981D01*
X1144331Y2573474D01*
X1168493Y2567000D01*
X1193507D01*
X1217668Y2573474D01*
X1239331Y2585981D01*
X1257019Y2603669D01*
X1269526Y2625332D01*
X1276000Y2649493D01*
Y2674507D01*
X1269526Y2698668D01*
X1257019Y2720331D01*
X1239331Y2738019D01*
X1217668Y2750526D01*
X1193507Y2757000D01*
D02*
G37*
G36*
X514000D02*
X324000D01*
Y2567000D01*
X514000D01*
Y2757000D01*
D02*
G37*
G36*
X2443507Y2580000D02*
X2418493D01*
X2394332Y2573526D01*
X2372669Y2561019D01*
X2354981Y2543331D01*
X2342474Y2521669D01*
X2336000Y2497507D01*
Y2472493D01*
X2342474Y2448332D01*
X2354981Y2426669D01*
X2372669Y2408981D01*
X2394332Y2396475D01*
X2418493Y2390000D01*
X2443507D01*
X2467668Y2396475D01*
X2489331Y2408981D01*
X2507019Y2426669D01*
X2519526Y2448332D01*
X2526000Y2472493D01*
Y2497507D01*
X2519526Y2521669D01*
X2507019Y2543331D01*
X2489331Y2561019D01*
X2467668Y2573526D01*
X2443507Y2580000D01*
D02*
G37*
G36*
X1681507D02*
X1656493D01*
X1632332Y2573526D01*
X1610669Y2561019D01*
X1592981Y2543331D01*
X1580474Y2521669D01*
X1574000Y2497507D01*
Y2472493D01*
X1580474Y2448332D01*
X1592981Y2426669D01*
X1610669Y2408981D01*
X1632332Y2396475D01*
X1656493Y2390000D01*
X1681507D01*
X1705668Y2396475D01*
X1727331Y2408981D01*
X1745019Y2426669D01*
X1757526Y2448332D01*
X1764000Y2472493D01*
Y2497507D01*
X1757526Y2521669D01*
X1745019Y2543331D01*
X1727331Y2561019D01*
X1705668Y2573526D01*
X1681507Y2580000D01*
D02*
G37*
G36*
X5984216Y2470000D02*
X5965784D01*
X5947981Y2465230D01*
X5932019Y2456014D01*
X5918986Y2442981D01*
X5909771Y2427019D01*
X5905000Y2409216D01*
Y2390784D01*
X5909771Y2372981D01*
X5918986Y2357019D01*
X5932019Y2343986D01*
X5947981Y2334771D01*
X5965784Y2330000D01*
X5984216D01*
X6002019Y2334771D01*
X6017981Y2343986D01*
X6031014Y2357019D01*
X6040229Y2372981D01*
X6045000Y2390784D01*
Y2409216D01*
X6040229Y2427019D01*
X6031014Y2442981D01*
X6017981Y2456014D01*
X6002019Y2465230D01*
X5984216Y2470000D01*
D02*
G37*
G36*
X1193507Y2503000D02*
X1168493D01*
X1144331Y2496526D01*
X1122669Y2484019D01*
X1104981Y2466331D01*
X1092474Y2444668D01*
X1086000Y2420507D01*
Y2395493D01*
X1092474Y2371332D01*
X1104981Y2349669D01*
X1122669Y2331981D01*
X1144331Y2319474D01*
X1168493Y2313000D01*
X1193507D01*
X1217668Y2319474D01*
X1239331Y2331981D01*
X1257019Y2349669D01*
X1269526Y2371332D01*
X1276000Y2395493D01*
Y2420507D01*
X1269526Y2444668D01*
X1257019Y2466331D01*
X1239331Y2484019D01*
X1217668Y2496526D01*
X1193507Y2503000D01*
D02*
G37*
G36*
X431507D02*
X406493D01*
X382331Y2496526D01*
X360669Y2484019D01*
X342981Y2466331D01*
X330474Y2444668D01*
X324000Y2420507D01*
Y2395493D01*
X330474Y2371332D01*
X342981Y2349669D01*
X360669Y2331981D01*
X382331Y2319474D01*
X406493Y2313000D01*
X431507D01*
X455668Y2319474D01*
X477331Y2331981D01*
X495019Y2349669D01*
X507526Y2371332D01*
X514000Y2395493D01*
Y2420507D01*
X507526Y2444668D01*
X495019Y2466331D01*
X477331Y2484019D01*
X455668Y2496526D01*
X431507Y2503000D01*
D02*
G37*
G36*
X4284216Y2345000D02*
X4265784D01*
X4247981Y2340230D01*
X4232019Y2331014D01*
X4218986Y2317981D01*
X4209771Y2302019D01*
X4205000Y2284216D01*
Y2265784D01*
X4209771Y2247981D01*
X4218986Y2232019D01*
X4232019Y2218986D01*
X4247981Y2209771D01*
X4265784Y2205000D01*
X4284216D01*
X4302019Y2209771D01*
X4317981Y2218986D01*
X4331014Y2232019D01*
X4340230Y2247981D01*
X4345000Y2265784D01*
Y2284216D01*
X4340230Y2302019D01*
X4331014Y2317981D01*
X4317981Y2331014D01*
X4302019Y2340230D01*
X4284216Y2345000D01*
D02*
G37*
G36*
X2443507Y2326000D02*
X2418493D01*
X2394332Y2319526D01*
X2372669Y2307019D01*
X2354981Y2289331D01*
X2342474Y2267669D01*
X2336000Y2243507D01*
Y2218493D01*
X2342474Y2194332D01*
X2354981Y2172669D01*
X2372669Y2154981D01*
X2394332Y2142475D01*
X2418493Y2136000D01*
X2443507D01*
X2467668Y2142475D01*
X2489331Y2154981D01*
X2507019Y2172669D01*
X2519526Y2194332D01*
X2526000Y2218493D01*
Y2243507D01*
X2519526Y2267669D01*
X2507019Y2289331D01*
X2489331Y2307019D01*
X2467668Y2319526D01*
X2443507Y2326000D01*
D02*
G37*
G36*
X1681507D02*
X1656493D01*
X1632332Y2319526D01*
X1610669Y2307019D01*
X1592981Y2289331D01*
X1580474Y2267669D01*
X1574000Y2243507D01*
Y2218493D01*
X1580474Y2194332D01*
X1592981Y2172669D01*
X1610669Y2154981D01*
X1632332Y2142475D01*
X1656493Y2136000D01*
X1681507D01*
X1705668Y2142475D01*
X1727331Y2154981D01*
X1745019Y2172669D01*
X1757526Y2194332D01*
X1764000Y2218493D01*
Y2243507D01*
X1757526Y2267669D01*
X1745019Y2289331D01*
X1727331Y2307019D01*
X1705668Y2319526D01*
X1681507Y2326000D01*
D02*
G37*
G36*
X1193507Y2249000D02*
X1168493D01*
X1144331Y2242526D01*
X1122669Y2230019D01*
X1104981Y2212331D01*
X1092474Y2190668D01*
X1086000Y2166507D01*
Y2141493D01*
X1092474Y2117332D01*
X1104981Y2095669D01*
X1122669Y2077981D01*
X1144331Y2065474D01*
X1168493Y2059000D01*
X1193507D01*
X1217668Y2065474D01*
X1239331Y2077981D01*
X1257019Y2095669D01*
X1269526Y2117332D01*
X1276000Y2141493D01*
Y2166507D01*
X1269526Y2190668D01*
X1257019Y2212331D01*
X1239331Y2230019D01*
X1217668Y2242526D01*
X1193507Y2249000D01*
D02*
G37*
G36*
X431507D02*
X406493D01*
X382331Y2242526D01*
X360669Y2230019D01*
X342981Y2212331D01*
X330474Y2190668D01*
X324000Y2166507D01*
Y2141493D01*
X330474Y2117332D01*
X342981Y2095669D01*
X360669Y2077981D01*
X382331Y2065474D01*
X406493Y2059000D01*
X431507D01*
X455668Y2065474D01*
X477331Y2077981D01*
X495019Y2095669D01*
X507526Y2117332D01*
X514000Y2141493D01*
Y2166507D01*
X507526Y2190668D01*
X495019Y2212331D01*
X477331Y2230019D01*
X455668Y2242526D01*
X431507Y2249000D01*
D02*
G37*
G36*
X4434216Y2165000D02*
X4415784D01*
X4397981Y2160229D01*
X4382019Y2151014D01*
X4368986Y2137981D01*
X4359771Y2122019D01*
X4355000Y2104216D01*
Y2085784D01*
X4359771Y2067981D01*
X4368986Y2052019D01*
X4382019Y2038986D01*
X4397981Y2029770D01*
X4415784Y2025000D01*
X4434216D01*
X4452019Y2029770D01*
X4467981Y2038986D01*
X4481014Y2052019D01*
X4490230Y2067981D01*
X4495000Y2085784D01*
Y2104216D01*
X4490230Y2122019D01*
X4481014Y2137981D01*
X4467981Y2151014D01*
X4452019Y2160229D01*
X4434216Y2165000D01*
D02*
G37*
G36*
X2443507Y2072000D02*
X2418493D01*
X2394332Y2065526D01*
X2372669Y2053019D01*
X2354981Y2035331D01*
X2342474Y2013669D01*
X2336000Y1989507D01*
Y1964493D01*
X2342474Y1940332D01*
X2354981Y1918669D01*
X2372669Y1900981D01*
X2394332Y1888475D01*
X2418493Y1882000D01*
X2443507D01*
X2467668Y1888475D01*
X2489331Y1900981D01*
X2507019Y1918669D01*
X2519526Y1940332D01*
X2526000Y1964493D01*
Y1989507D01*
X2519526Y2013669D01*
X2507019Y2035331D01*
X2489331Y2053019D01*
X2467668Y2065526D01*
X2443507Y2072000D01*
D02*
G37*
G36*
X1681507D02*
X1656493D01*
X1632332Y2065526D01*
X1610669Y2053019D01*
X1592981Y2035331D01*
X1580474Y2013669D01*
X1574000Y1989507D01*
Y1964493D01*
X1580474Y1940332D01*
X1592981Y1918669D01*
X1610669Y1900981D01*
X1632332Y1888475D01*
X1656493Y1882000D01*
X1681507D01*
X1705668Y1888475D01*
X1727331Y1900981D01*
X1745019Y1918669D01*
X1757526Y1940332D01*
X1764000Y1964493D01*
Y1989507D01*
X1757526Y2013669D01*
X1745019Y2035331D01*
X1727331Y2053019D01*
X1705668Y2065526D01*
X1681507Y2072000D01*
D02*
G37*
G36*
X1193507Y1995000D02*
X1168493D01*
X1144331Y1988526D01*
X1122669Y1976019D01*
X1104981Y1958331D01*
X1092474Y1936668D01*
X1086000Y1912507D01*
Y1887493D01*
X1092474Y1863332D01*
X1104981Y1841669D01*
X1122669Y1823981D01*
X1144331Y1811474D01*
X1168493Y1805000D01*
X1193507D01*
X1217668Y1811474D01*
X1239331Y1823981D01*
X1257019Y1841669D01*
X1269526Y1863332D01*
X1276000Y1887493D01*
Y1912507D01*
X1269526Y1936668D01*
X1257019Y1958331D01*
X1239331Y1976019D01*
X1217668Y1988526D01*
X1193507Y1995000D01*
D02*
G37*
G36*
X431507D02*
X406493D01*
X382331Y1988526D01*
X360669Y1976019D01*
X342981Y1958331D01*
X330474Y1936668D01*
X324000Y1912507D01*
Y1887493D01*
X330474Y1863332D01*
X342981Y1841669D01*
X360669Y1823981D01*
X382331Y1811474D01*
X406493Y1805000D01*
X431507D01*
X455668Y1811474D01*
X477331Y1823981D01*
X495019Y1841669D01*
X507526Y1863332D01*
X514000Y1887493D01*
Y1912507D01*
X507526Y1936668D01*
X495019Y1958331D01*
X477331Y1976019D01*
X455668Y1988526D01*
X431507Y1995000D01*
D02*
G37*
G36*
X2937700Y1810116D02*
Y1762700D01*
X2985116D01*
X2976205Y1784214D01*
X2959214Y1801205D01*
X2937700Y1810116D01*
D02*
G37*
G36*
X2912300D02*
X2890786Y1801205D01*
X2873795Y1784214D01*
X2864884Y1762700D01*
X2912300D01*
Y1810116D01*
D02*
G37*
G36*
X2985116Y1737300D02*
X2937700D01*
Y1689884D01*
X2959214Y1698795D01*
X2976205Y1715786D01*
X2985116Y1737300D01*
D02*
G37*
G36*
X2912300D02*
X2864884D01*
X2873795Y1715786D01*
X2890786Y1698795D01*
X2912300Y1689884D01*
Y1737300D01*
D02*
G37*
G36*
X2443507Y1818000D02*
X2418493D01*
X2394332Y1811526D01*
X2372669Y1799019D01*
X2354981Y1781331D01*
X2342474Y1759669D01*
X2336000Y1735507D01*
Y1710493D01*
X2342474Y1686332D01*
X2354981Y1664669D01*
X2372669Y1646981D01*
X2394332Y1634475D01*
X2418493Y1628000D01*
X2443507D01*
X2467668Y1634475D01*
X2489331Y1646981D01*
X2507019Y1664669D01*
X2519526Y1686332D01*
X2526000Y1710493D01*
Y1735507D01*
X2519526Y1759669D01*
X2507019Y1781331D01*
X2489331Y1799019D01*
X2467668Y1811526D01*
X2443507Y1818000D01*
D02*
G37*
G36*
X1681507D02*
X1656493D01*
X1632332Y1811526D01*
X1610669Y1799019D01*
X1592981Y1781331D01*
X1580474Y1759669D01*
X1574000Y1735507D01*
Y1710493D01*
X1580474Y1686332D01*
X1592981Y1664669D01*
X1610669Y1646981D01*
X1632332Y1634475D01*
X1656493Y1628000D01*
X1681507D01*
X1705668Y1634475D01*
X1727331Y1646981D01*
X1745019Y1664669D01*
X1757526Y1686332D01*
X1764000Y1710493D01*
Y1735507D01*
X1757526Y1759669D01*
X1745019Y1781331D01*
X1727331Y1799019D01*
X1705668Y1811526D01*
X1681507Y1818000D01*
D02*
G37*
G36*
X1193507Y1741000D02*
X1168493D01*
X1144331Y1734526D01*
X1122669Y1722019D01*
X1104981Y1704331D01*
X1092474Y1682668D01*
X1086000Y1658507D01*
Y1633493D01*
X1092474Y1609332D01*
X1104981Y1587669D01*
X1122669Y1569981D01*
X1144331Y1557474D01*
X1168493Y1551000D01*
X1193507D01*
X1217668Y1557474D01*
X1239331Y1569981D01*
X1257019Y1587669D01*
X1269526Y1609332D01*
X1276000Y1633493D01*
Y1658507D01*
X1269526Y1682668D01*
X1257019Y1704331D01*
X1239331Y1722019D01*
X1217668Y1734526D01*
X1193507Y1741000D01*
D02*
G37*
G36*
X431507D02*
X406493D01*
X382331Y1734526D01*
X360669Y1722019D01*
X342981Y1704331D01*
X330474Y1682668D01*
X324000Y1658507D01*
Y1633493D01*
X330474Y1609332D01*
X342981Y1587669D01*
X360669Y1569981D01*
X382331Y1557474D01*
X406493Y1551000D01*
X431507D01*
X455668Y1557474D01*
X477331Y1569981D01*
X495019Y1587669D01*
X507526Y1609332D01*
X514000Y1633493D01*
Y1658507D01*
X507526Y1682668D01*
X495019Y1704331D01*
X477331Y1722019D01*
X455668Y1734526D01*
X431507Y1741000D01*
D02*
G37*
G36*
X2443507Y1564000D02*
X2418493D01*
X2394332Y1557526D01*
X2372669Y1545019D01*
X2354981Y1527331D01*
X2342474Y1505669D01*
X2336000Y1481507D01*
Y1456493D01*
X2342474Y1432332D01*
X2354981Y1410669D01*
X2372669Y1392981D01*
X2394332Y1380475D01*
X2418493Y1374000D01*
X2443507D01*
X2467668Y1380475D01*
X2489331Y1392981D01*
X2507019Y1410669D01*
X2519526Y1432332D01*
X2526000Y1456493D01*
Y1481507D01*
X2519526Y1505669D01*
X2507019Y1527331D01*
X2489331Y1545019D01*
X2467668Y1557526D01*
X2443507Y1564000D01*
D02*
G37*
G36*
X1681507D02*
X1656493D01*
X1632332Y1557526D01*
X1610669Y1545019D01*
X1592981Y1527331D01*
X1580474Y1505669D01*
X1574000Y1481507D01*
Y1456493D01*
X1580474Y1432332D01*
X1592981Y1410669D01*
X1610669Y1392981D01*
X1632332Y1380475D01*
X1656493Y1374000D01*
X1681507D01*
X1705668Y1380475D01*
X1727331Y1392981D01*
X1745019Y1410669D01*
X1757526Y1432332D01*
X1764000Y1456493D01*
Y1481507D01*
X1757526Y1505669D01*
X1745019Y1527331D01*
X1727331Y1545019D01*
X1705668Y1557526D01*
X1681507Y1564000D01*
D02*
G37*
G36*
X4234216Y1495000D02*
X4215784D01*
X4197981Y1490229D01*
X4182019Y1481014D01*
X4168986Y1467981D01*
X4159770Y1452019D01*
X4155000Y1434216D01*
Y1415784D01*
X4159770Y1397981D01*
X4168986Y1382019D01*
X4182019Y1368986D01*
X4197981Y1359770D01*
X4215784Y1355000D01*
X4234216D01*
X4252019Y1359770D01*
X4267981Y1368986D01*
X4281014Y1382019D01*
X4290229Y1397981D01*
X4295000Y1415784D01*
Y1434216D01*
X4290229Y1452019D01*
X4281014Y1467981D01*
X4267981Y1481014D01*
X4252019Y1490229D01*
X4234216Y1495000D01*
D02*
G37*
G36*
X2884216Y1470000D02*
X2865784D01*
X2847981Y1465229D01*
X2832019Y1456014D01*
X2818986Y1442981D01*
X2809771Y1427019D01*
X2805000Y1409216D01*
Y1390784D01*
X2809771Y1372981D01*
X2818986Y1357019D01*
X2832019Y1343986D01*
X2847981Y1334771D01*
X2865784Y1330000D01*
X2884216D01*
X2902019Y1334771D01*
X2917981Y1343986D01*
X2931014Y1357019D01*
X2940230Y1372981D01*
X2945000Y1390784D01*
Y1409216D01*
X2940230Y1427019D01*
X2931014Y1442981D01*
X2917981Y1456014D01*
X2902019Y1465229D01*
X2884216Y1470000D01*
D02*
G37*
G36*
X1462700Y1360116D02*
Y1312700D01*
X1510116D01*
X1501205Y1334214D01*
X1484214Y1351205D01*
X1462700Y1360116D01*
D02*
G37*
G36*
X1437300D02*
X1415786Y1351205D01*
X1398795Y1334214D01*
X1389884Y1312700D01*
X1437300D01*
Y1360116D01*
D02*
G37*
G36*
X1193507Y1487000D02*
X1168493D01*
X1144331Y1480526D01*
X1122669Y1468019D01*
X1104981Y1450331D01*
X1092474Y1428668D01*
X1086000Y1404507D01*
Y1379493D01*
X1092474Y1355332D01*
X1104981Y1333669D01*
X1122669Y1315981D01*
X1144331Y1303474D01*
X1168493Y1297000D01*
X1193507D01*
X1217668Y1303474D01*
X1239331Y1315981D01*
X1257019Y1333669D01*
X1269526Y1355332D01*
X1276000Y1379493D01*
Y1404507D01*
X1269526Y1428668D01*
X1257019Y1450331D01*
X1239331Y1468019D01*
X1217668Y1480526D01*
X1193507Y1487000D01*
D02*
G37*
G36*
X431507D02*
X406493D01*
X382331Y1480526D01*
X360669Y1468019D01*
X342981Y1450331D01*
X330474Y1428668D01*
X324000Y1404507D01*
Y1379493D01*
X330474Y1355332D01*
X342981Y1333669D01*
X360669Y1315981D01*
X382331Y1303474D01*
X406493Y1297000D01*
X431507D01*
X455668Y1303474D01*
X477331Y1315981D01*
X495019Y1333669D01*
X507526Y1355332D01*
X514000Y1379493D01*
Y1404507D01*
X507526Y1428668D01*
X495019Y1450331D01*
X477331Y1468019D01*
X455668Y1480526D01*
X431507Y1487000D01*
D02*
G37*
G36*
X1510116Y1287300D02*
X1462700D01*
Y1239884D01*
X1484214Y1248795D01*
X1501205Y1265786D01*
X1510116Y1287300D01*
D02*
G37*
G36*
X1437300D02*
X1389884D01*
X1398795Y1265786D01*
X1415786Y1248795D01*
X1437300Y1239884D01*
Y1287300D01*
D02*
G37*
G36*
X1682218Y1315400D02*
X1681700D01*
Y1227700D01*
X1769400D01*
Y1228218D01*
X1762558Y1253753D01*
X1749340Y1276647D01*
X1730647Y1295340D01*
X1707753Y1308558D01*
X1682218Y1315400D01*
D02*
G37*
G36*
X1656300D02*
X1655782D01*
X1630247Y1308558D01*
X1607353Y1295340D01*
X1588660Y1276647D01*
X1575442Y1253753D01*
X1568600Y1228218D01*
Y1227700D01*
X1656300D01*
Y1315400D01*
D02*
G37*
G36*
X237700Y1260116D02*
Y1212700D01*
X285116D01*
X276205Y1234214D01*
X259214Y1251205D01*
X237700Y1260116D01*
D02*
G37*
G36*
X212300D02*
X190786Y1251205D01*
X173795Y1234214D01*
X164884Y1212700D01*
X212300D01*
Y1260116D01*
D02*
G37*
G36*
X432218Y1238400D02*
X431700D01*
Y1150700D01*
X519400D01*
Y1151218D01*
X512558Y1176753D01*
X499340Y1199647D01*
X480647Y1218340D01*
X457753Y1231558D01*
X432218Y1238400D01*
D02*
G37*
G36*
X406300D02*
X405782D01*
X380247Y1231558D01*
X357353Y1218340D01*
X338660Y1199647D01*
X325442Y1176753D01*
X318600Y1151218D01*
Y1150700D01*
X406300D01*
Y1238400D01*
D02*
G37*
G36*
X285116Y1187300D02*
X237700D01*
Y1139884D01*
X259214Y1148795D01*
X276205Y1165786D01*
X285116Y1187300D01*
D02*
G37*
G36*
X212300D02*
X164884D01*
X173795Y1165786D01*
X190786Y1148795D01*
X212300Y1139884D01*
Y1187300D01*
D02*
G37*
G36*
X1437700Y1185116D02*
Y1137700D01*
X1485116D01*
X1476205Y1159214D01*
X1459214Y1176205D01*
X1437700Y1185116D01*
D02*
G37*
G36*
X1412300D02*
X1390786Y1176205D01*
X1373795Y1159214D01*
X1364884Y1137700D01*
X1412300D01*
Y1185116D01*
D02*
G37*
G36*
X2443507Y1310000D02*
X2418493D01*
X2394332Y1303526D01*
X2372669Y1291019D01*
X2354981Y1273331D01*
X2342474Y1251669D01*
X2336000Y1227507D01*
Y1202493D01*
X2342474Y1178332D01*
X2354981Y1156669D01*
X2372669Y1138981D01*
X2394332Y1126475D01*
X2418493Y1120000D01*
X2443507D01*
X2467668Y1126475D01*
X2489331Y1138981D01*
X2507019Y1156669D01*
X2519526Y1178332D01*
X2526000Y1202493D01*
Y1227507D01*
X2519526Y1251669D01*
X2507019Y1273331D01*
X2489331Y1291019D01*
X2467668Y1303526D01*
X2443507Y1310000D01*
D02*
G37*
G36*
X1769400Y1202300D02*
X1681700D01*
Y1114600D01*
X1682218D01*
X1707753Y1121442D01*
X1730647Y1134660D01*
X1749340Y1153353D01*
X1762558Y1176247D01*
X1769400Y1201782D01*
Y1202300D01*
D02*
G37*
G36*
X1656300D02*
X1568600D01*
Y1201782D01*
X1575442Y1176247D01*
X1588660Y1153353D01*
X1607353Y1134660D01*
X1630247Y1121442D01*
X1655782Y1114600D01*
X1656300D01*
Y1202300D01*
D02*
G37*
G36*
X1485116Y1112300D02*
X1437700D01*
Y1064884D01*
X1459214Y1073795D01*
X1476205Y1090786D01*
X1485116Y1112300D01*
D02*
G37*
G36*
X1412300D02*
X1364884D01*
X1373795Y1090786D01*
X1390786Y1073795D01*
X1412300Y1064884D01*
Y1112300D01*
D02*
G37*
G36*
X1193507Y1233000D02*
X1168493D01*
X1144331Y1226526D01*
X1122669Y1214019D01*
X1104981Y1196331D01*
X1092474Y1174668D01*
X1086000Y1150507D01*
Y1125493D01*
X1092474Y1101332D01*
X1104981Y1079669D01*
X1122669Y1061981D01*
X1144331Y1049474D01*
X1168493Y1043000D01*
X1193507D01*
X1217668Y1049474D01*
X1239331Y1061981D01*
X1257019Y1079669D01*
X1269526Y1101332D01*
X1276000Y1125493D01*
Y1150507D01*
X1269526Y1174668D01*
X1257019Y1196331D01*
X1239331Y1214019D01*
X1217668Y1226526D01*
X1193507Y1233000D01*
D02*
G37*
G36*
X519400Y1125300D02*
X431700D01*
Y1037600D01*
X432218D01*
X457753Y1044442D01*
X480647Y1057660D01*
X499340Y1076353D01*
X512558Y1099247D01*
X519400Y1124782D01*
Y1125300D01*
D02*
G37*
G36*
X406300D02*
X318600D01*
Y1124782D01*
X325442Y1099247D01*
X338660Y1076353D01*
X357353Y1057660D01*
X380247Y1044442D01*
X405782Y1037600D01*
X406300D01*
Y1125300D01*
D02*
G37*
G36*
X2909216Y1145000D02*
X2890784D01*
X2872981Y1140229D01*
X2857019Y1131014D01*
X2843986Y1117981D01*
X2834771Y1102019D01*
X2830000Y1084216D01*
Y1065784D01*
X2834771Y1047981D01*
X2843986Y1032019D01*
X2857019Y1018986D01*
X2872981Y1009770D01*
X2890784Y1005000D01*
X2909216D01*
X2927019Y1009770D01*
X2942981Y1018986D01*
X2956014Y1032019D01*
X2965230Y1047981D01*
X2970000Y1065784D01*
Y1084216D01*
X2965230Y1102019D01*
X2956014Y1117981D01*
X2942981Y1131014D01*
X2927019Y1140229D01*
X2909216Y1145000D01*
D02*
G37*
G36*
X4159216Y1120000D02*
X4140784D01*
X4122981Y1115229D01*
X4107019Y1106014D01*
X4093986Y1092981D01*
X4084771Y1077019D01*
X4080000Y1059216D01*
Y1040784D01*
X4084771Y1022981D01*
X4093986Y1007019D01*
X4107019Y993986D01*
X4122981Y984770D01*
X4140784Y980000D01*
X4159216D01*
X4177019Y984770D01*
X4192981Y993986D01*
X4206014Y1007019D01*
X4215230Y1022981D01*
X4220000Y1040784D01*
Y1059216D01*
X4215230Y1077019D01*
X4206014Y1092981D01*
X4192981Y1106014D01*
X4177019Y1115229D01*
X4159216Y1120000D01*
D02*
G37*
G36*
X1682218Y1061400D02*
X1681700D01*
Y973700D01*
X1769400D01*
Y974218D01*
X1762558Y999753D01*
X1749340Y1022647D01*
X1730647Y1041340D01*
X1707753Y1054558D01*
X1682218Y1061400D01*
D02*
G37*
G36*
X1656300D02*
X1655782D01*
X1630247Y1054558D01*
X1607353Y1041340D01*
X1588660Y1022647D01*
X1575442Y999753D01*
X1568600Y974218D01*
Y973700D01*
X1656300D01*
Y1061400D01*
D02*
G37*
G36*
X4759216Y1095000D02*
X4740784D01*
X4722981Y1090229D01*
X4707019Y1081014D01*
X4693986Y1067981D01*
X4684770Y1052019D01*
X4680000Y1034216D01*
Y1015784D01*
X4684770Y997981D01*
X4693986Y982019D01*
X4707019Y968986D01*
X4722981Y959770D01*
X4740784Y955000D01*
X4759216D01*
X4777019Y959770D01*
X4792981Y968986D01*
X4806014Y982019D01*
X4815229Y997981D01*
X4820000Y1015784D01*
Y1034216D01*
X4815229Y1052019D01*
X4806014Y1067981D01*
X4792981Y1081014D01*
X4777019Y1090229D01*
X4759216Y1095000D01*
D02*
G37*
G36*
X2443507Y1056000D02*
X2418493D01*
X2394332Y1049526D01*
X2372669Y1037019D01*
X2354981Y1019331D01*
X2342474Y997669D01*
X2336000Y973507D01*
Y948493D01*
X2342474Y924332D01*
X2354981Y902669D01*
X2372669Y884981D01*
X2394332Y872475D01*
X2418493Y866000D01*
X2443507D01*
X2467668Y872475D01*
X2489331Y884981D01*
X2507019Y902669D01*
X2519526Y924332D01*
X2526000Y948493D01*
Y973507D01*
X2519526Y997669D01*
X2507019Y1019331D01*
X2489331Y1037019D01*
X2467668Y1049526D01*
X2443507Y1056000D01*
D02*
G37*
G36*
X1769400Y948300D02*
X1681700D01*
Y860600D01*
X1682218D01*
X1707753Y867442D01*
X1730647Y880660D01*
X1749340Y899353D01*
X1762558Y922247D01*
X1769400Y947782D01*
Y948300D01*
D02*
G37*
G36*
X1656300D02*
X1568600D01*
Y947782D01*
X1575442Y922247D01*
X1588660Y899353D01*
X1607353Y880660D01*
X1630247Y867442D01*
X1655782Y860600D01*
X1656300D01*
Y948300D01*
D02*
G37*
G36*
X4134216Y820000D02*
X4115784D01*
X4097981Y815230D01*
X4082019Y806014D01*
X4068986Y792981D01*
X4059770Y777019D01*
X4055000Y759216D01*
Y740784D01*
X4059770Y722981D01*
X4068986Y707019D01*
X4082019Y693986D01*
X4097981Y684771D01*
X4115784Y680000D01*
X4134216D01*
X4152019Y684771D01*
X4167981Y693986D01*
X4181014Y707019D01*
X4190229Y722981D01*
X4195000Y740784D01*
Y759216D01*
X4190229Y777019D01*
X4181014Y792981D01*
X4167981Y806014D01*
X4152019Y815230D01*
X4134216Y820000D01*
D02*
G37*
G36*
X3562700Y705116D02*
Y657700D01*
X3610116D01*
X3601205Y679214D01*
X3584214Y696205D01*
X3562700Y705116D01*
D02*
G37*
G36*
X3537300D02*
X3515786Y696205D01*
X3498795Y679214D01*
X3489884Y657700D01*
X3537300D01*
Y705116D01*
D02*
G37*
G36*
X4584216Y770000D02*
X4565784D01*
X4547981Y765230D01*
X4532019Y756014D01*
X4518986Y742981D01*
X4509771Y727019D01*
X4505000Y709216D01*
Y690784D01*
X4509771Y672981D01*
X4518986Y657019D01*
X4532019Y643986D01*
X4547981Y634771D01*
X4565784Y630000D01*
X4584216D01*
X4602019Y634771D01*
X4617981Y643986D01*
X4631014Y657019D01*
X4640229Y672981D01*
X4645000Y690784D01*
Y709216D01*
X4640229Y727019D01*
X4631014Y742981D01*
X4617981Y756014D01*
X4602019Y765230D01*
X4584216Y770000D01*
D02*
G37*
G36*
X3610116Y632300D02*
X3562700D01*
Y584884D01*
X3584214Y593796D01*
X3601205Y610786D01*
X3610116Y632300D01*
D02*
G37*
G36*
X3537300D02*
X3489884D01*
X3498795Y610786D01*
X3515786Y593796D01*
X3537300Y584884D01*
Y632300D01*
D02*
G37*
%LPD*%
D17*
X4188000Y3846000D02*
D03*
Y4100000D02*
D03*
Y4354000D02*
D03*
X1669000Y4708000D02*
D03*
Y4454000D02*
D03*
Y4200000D02*
D03*
Y3946000D02*
D03*
Y3692000D02*
D03*
Y3438000D02*
D03*
X2431000Y4962000D02*
D03*
Y4708000D02*
D03*
Y4454000D02*
D03*
Y4200000D02*
D03*
Y3946000D02*
D03*
Y3692000D02*
D03*
Y3438000D02*
D03*
X419000Y2408000D02*
D03*
Y2154000D02*
D03*
Y1900000D02*
D03*
Y1646000D02*
D03*
Y1392000D02*
D03*
Y1138000D02*
D03*
X1181000Y2662000D02*
D03*
Y2408000D02*
D03*
Y2154000D02*
D03*
Y1900000D02*
D03*
Y1646000D02*
D03*
Y1392000D02*
D03*
Y1138000D02*
D03*
X1669000Y2485000D02*
D03*
Y2231000D02*
D03*
Y1977000D02*
D03*
Y1723000D02*
D03*
Y1469000D02*
D03*
Y1215000D02*
D03*
Y961000D02*
D03*
X2431000Y2739000D02*
D03*
Y2485000D02*
D03*
Y2231000D02*
D03*
Y1977000D02*
D03*
Y1723000D02*
D03*
Y1469000D02*
D03*
Y1215000D02*
D03*
Y961000D02*
D03*
X4950000Y3084000D02*
D03*
Y3338000D02*
D03*
Y3592000D02*
D03*
Y3846000D02*
D03*
Y4100000D02*
D03*
Y4354000D02*
D03*
Y4608000D02*
D03*
Y4862000D02*
D03*
X4188000Y3084000D02*
D03*
Y3338000D02*
D03*
Y3592000D02*
D03*
Y4608000D02*
D03*
D18*
X1669000Y4962000D02*
D03*
X419000Y2662000D02*
D03*
X1669000Y2739000D02*
D03*
X4188000Y4862000D02*
D03*
D19*
X850000Y4716000D02*
D03*
Y4462000D02*
D03*
Y4208000D02*
D03*
Y3954000D02*
D03*
Y3700000D02*
D03*
D20*
Y3446000D02*
D03*
D21*
X3200000Y3325000D02*
D03*
X3575000Y5100000D02*
D03*
X4575000Y700000D02*
D03*
X4750000Y1025000D02*
D03*
X4125000Y750000D02*
D03*
X4150000Y1050000D02*
D03*
X4225000Y1425000D02*
D03*
X4425000Y2095000D02*
D03*
X4275000Y2275000D02*
D03*
X2900000Y1075000D02*
D03*
X3675000Y4850000D02*
D03*
X5975000Y2400000D02*
D03*
X3700000Y4025000D02*
D03*
X2875000Y1400000D02*
D03*
D22*
X2800000Y4625000D02*
D03*
X2725000Y3800000D02*
D03*
X2775000Y3000000D02*
D03*
X2925000Y1750000D02*
D03*
X3950000Y3000000D02*
D03*
X3550000Y645000D02*
D03*
X1650000Y3275000D02*
D03*
X650000Y4675000D02*
D03*
X1450000Y1300000D02*
D03*
X1425000Y1125000D02*
D03*
X225000Y1200000D02*
D03*
%TF.MD5,81925af6eba0bfc122f51d6944a1ff7e*%
M02*
